{"glyphs":{"0":{"ha":805,"x_min":35,"x_max":770,"o":"m 770 502 q 742 274 770 371 q 665 114 714 177 q 547 20 615 51 q 401 -11 479 -11 q 256 20 323 -11 q 139 114 189 51 q 62 274 90 177 q 35 502 35 371 q 62 731 35 634 q 139 890 90 827 q 256 984 189 954 q 401 1015 323 1015 q 547 984 479 1015 q 665 890 615 954 q 742 731 714 827 q 770 502 770 634 m 593 502 q 577 683 593 611 q 535 797 562 754 q 473 856 508 839 q 401 873 439 873 q 330 856 364 873 q 269 797 296 839 q 227 683 243 754 q 212 502 212 611 q 227 322 212 393 q 269 208 243 250 q 330 149 296 165 q 401 132 364 132 q 473 149 439 132 q 535 208 508 165 q 577 322 562 250 q 593 502 593 393 z "},"1":{"ha":805,"x_min":114,"x_max":742,"o":"m 186 128 l 390 128 l 390 714 q 392 785 390 748 l 248 665 q 229 654 238 657 q 210 652 220 652 q 185 657 197 652 q 168 671 174 663 l 114 745 l 420 1006 l 561 1006 l 561 128 l 742 128 l 742 0 l 186 0 l 186 128 z "},"2":{"ha":805,"x_min":58,"x_max":747,"o":"m 418 1015 q 545 995 488 1015 q 644 937 603 975 q 708 846 685 899 q 730 729 730 793 q 714 626 730 673 q 670 536 698 579 q 606 453 643 493 q 529 371 570 412 l 302 140 q 368 155 336 149 q 429 160 400 160 l 687 160 q 731 144 715 160 q 747 103 747 128 l 747 0 l 58 0 l 58 57 q 66 93 58 75 q 89 127 73 112 l 394 433 q 462 508 432 472 q 513 578 492 543 q 544 648 533 612 q 555 724 555 684 q 544 787 555 760 q 514 833 534 814 q 468 861 495 852 q 408 871 441 871 q 307 840 347 871 q 251 755 267 808 q 228 718 243 729 q 189 706 212 706 q 166 708 178 706 l 76 724 q 116 851 86 797 q 191 942 146 905 q 293 997 235 979 q 418 1015 351 1015 z "},"3":{"ha":805,"x_min":62,"x_max":757,"o":"m 434 1015 q 559 996 503 1015 q 655 941 615 976 q 715 858 694 905 q 736 756 736 811 q 726 672 736 708 q 695 608 715 635 q 645 563 674 581 q 578 531 615 544 q 712 444 668 503 q 757 298 757 386 q 729 165 757 223 q 654 68 701 108 q 545 9 607 29 q 413 -11 483 -11 q 281 6 338 -11 q 183 58 225 24 q 113 141 142 92 q 62 255 83 191 l 138 286 q 178 294 157 294 q 210 287 196 294 q 232 264 224 279 q 259 217 244 240 q 295 175 274 193 q 344 145 316 156 q 411 134 372 134 q 488 148 455 134 q 542 185 520 162 q 574 236 564 208 q 585 292 585 264 q 578 358 585 328 q 546 408 570 387 q 476 441 522 429 q 354 453 431 453 l 354 575 q 459 587 417 576 q 525 618 500 598 q 560 665 550 637 q 570 726 570 693 q 531 834 570 798 q 425 871 492 871 q 323 839 363 871 q 267 755 283 806 q 244 718 258 729 q 205 706 229 706 q 182 708 195 706 l 92 724 q 132 851 102 797 q 207 942 161 905 q 310 997 252 979 q 434 1015 368 1015 z "},"4":{"ha":805,"x_min":16,"x_max":780,"o":"m 654 378 l 780 378 l 780 279 q 771 255 780 265 q 745 245 762 245 l 654 245 l 654 0 l 504 0 l 504 245 l 80 245 q 50 256 63 245 q 33 283 37 267 l 16 370 l 491 1005 l 654 1005 l 654 378 m 504 707 q 505 755 504 729 q 510 808 507 781 l 198 378 l 504 378 l 504 707 z "},"5":{"ha":805,"x_min":52,"x_max":720,"o":"m 686 931 q 663 871 686 895 q 585 848 640 848 l 309 848 l 273 639 q 397 653 341 653 q 537 629 477 653 q 638 564 597 606 q 700 466 679 522 q 720 346 720 410 q 692 200 720 266 q 614 87 664 134 q 496 15 564 40 q 347 -11 427 -11 q 257 -1 300 -11 q 178 24 215 8 q 109 62 140 41 q 52 107 77 83 l 105 180 q 149 203 121 203 q 184 192 167 203 q 226 168 202 181 q 281 144 250 155 q 357 133 312 133 q 440 148 404 133 q 500 191 476 163 q 536 256 524 218 q 548 338 548 294 q 500 467 548 420 q 361 513 453 513 q 214 486 288 513 l 107 517 l 191 1004 l 686 1004 l 686 931 z "},"6":{"ha":805,"x_min":60,"x_max":762,"o":"m 465 627 q 576 608 522 627 q 671 552 630 589 q 737 458 712 514 q 762 326 762 401 q 736 195 762 256 q 664 87 710 134 q 552 15 617 41 q 407 -11 486 -11 q 262 15 326 -11 q 154 86 199 40 q 84 198 109 133 q 60 342 60 262 q 89 487 60 412 q 178 642 118 562 l 418 964 q 454 992 431 981 q 510 1004 478 1004 l 663 1004 l 365 640 q 346 617 355 628 q 329 596 338 607 q 392 619 358 610 q 465 627 426 627 m 225 315 q 236 239 225 273 q 270 180 248 205 q 326 142 293 156 q 404 129 359 129 q 479 143 444 129 q 538 182 513 157 q 576 240 562 207 q 590 314 590 274 q 577 391 590 357 q 539 450 564 426 q 481 486 515 473 q 406 498 447 498 q 332 485 366 498 q 275 446 298 471 q 238 388 251 422 q 225 315 225 354 z "},"7":{"ha":805,"x_min":66,"x_max":761,"o":"m 761 1004 l 761 930 q 753 876 761 897 q 739 842 746 856 l 359 58 q 326 17 348 34 q 268 0 304 0 l 144 0 l 532 768 q 587 848 557 814 l 106 848 q 78 860 90 848 q 66 888 66 872 l 66 1004 l 761 1004 z "},"8":{"ha":805,"x_min":54,"x_max":751,"o":"m 402 -11 q 260 10 324 -11 q 150 69 196 31 q 79 161 104 107 q 54 282 54 215 q 97 432 54 371 q 233 524 141 494 q 123 610 160 554 q 87 746 87 667 q 110 852 87 803 q 175 938 134 901 q 275 995 217 975 q 402 1015 333 1015 q 529 995 471 1015 q 629 938 587 975 q 694 852 671 901 q 718 746 718 803 q 681 610 718 667 q 571 524 644 554 q 707 432 663 494 q 751 282 751 371 q 725 161 751 215 q 654 69 700 107 q 544 10 608 31 q 402 -11 480 -11 m 402 123 q 477 135 445 123 q 530 169 509 147 q 563 220 552 191 q 574 285 574 250 q 529 410 574 368 q 402 452 483 452 q 276 410 321 452 q 230 285 230 368 q 241 220 230 250 q 274 169 252 191 q 328 135 296 147 q 402 123 360 123 m 402 587 q 472 600 444 587 q 518 635 500 613 q 543 685 536 657 q 550 743 550 713 q 541 797 550 772 q 514 843 532 823 q 468 874 496 863 q 402 886 440 886 q 336 874 364 886 q 290 843 309 863 q 263 797 272 823 q 254 743 254 772 q 261 685 254 713 q 286 635 269 657 q 332 600 304 613 q 402 587 361 587 z "},"9":{"ha":805,"x_min":90,"x_max":766,"o":"m 368 401 q 266 419 316 401 q 177 473 216 437 q 114 564 138 510 q 90 690 90 617 q 115 816 90 757 q 185 919 140 875 q 294 989 231 964 q 433 1015 357 1015 q 572 991 511 1015 q 677 923 633 966 q 743 818 720 879 q 766 684 766 757 q 759 596 766 637 q 736 515 751 554 q 700 440 721 477 q 653 368 679 404 l 424 39 q 389 12 412 23 q 335 0 366 0 l 178 0 l 490 389 q 512 418 501 404 q 532 446 522 432 q 455 412 497 424 q 368 401 414 401 m 602 701 q 590 775 602 743 q 554 829 577 807 q 499 863 531 851 q 431 875 468 875 q 360 862 391 875 q 307 826 329 849 q 274 772 286 804 q 262 703 262 741 q 305 574 262 618 q 429 530 349 530 q 502 544 470 530 q 557 580 534 557 q 591 634 579 603 q 602 701 602 665 z "}," ":{"ha":361,"x_min":0,"x_max":0,"o":""},"!":{"ha":500,"x_min":145,"x_max":355,"o":"m 334 1004 l 334 607 q 327 483 334 544 q 311 354 321 422 l 195 354 q 178 483 184 422 q 172 607 172 544 l 172 1004 l 334 1004 m 145 94 q 153 135 145 116 q 176 169 161 155 q 209 191 190 182 q 251 199 229 199 q 292 191 272 199 q 325 169 311 182 q 347 135 339 155 q 355 94 355 116 q 347 53 355 72 q 325 20 339 34 q 292 -2 311 6 q 251 -9 272 -9 q 209 -2 229 -9 q 176 20 190 6 q 153 53 161 34 q 145 94 145 72 z "},"\"":{"ha":586,"x_min":91,"x_max":496,"o":"m 240 1004 l 240 804 l 224 696 q 207 649 219 665 q 165 633 194 633 q 125 649 140 633 q 106 696 111 665 l 91 804 l 91 1004 l 240 1004 m 496 1004 l 496 804 l 479 696 q 462 649 475 665 q 420 633 449 633 q 381 649 395 633 q 361 696 366 665 l 347 804 l 347 1004 l 496 1004 z "},"#":{"ha":805,"x_min":26,"x_max":787,"o":"m 576 283 l 523 0 l 444 0 q 409 17 424 0 q 393 58 393 33 q 394 64 393 61 q 395 71 394 67 l 435 283 l 293 283 l 253 62 q 224 15 247 29 q 175 0 202 0 l 100 0 l 152 283 l 73 283 q 38 294 50 283 q 26 330 26 305 q 28 352 26 340 l 37 407 l 170 407 l 205 599 l 57 599 l 71 670 q 92 709 75 696 q 146 722 109 722 l 223 722 l 266 946 q 292 989 271 974 q 339 1004 312 1004 l 416 1004 l 364 722 l 506 722 l 559 1004 l 635 1004 q 675 990 660 1004 q 690 955 690 977 q 690 945 690 948 l 646 722 l 787 722 l 774 650 q 753 612 770 625 q 699 599 736 599 l 629 599 l 594 407 l 692 407 q 726 396 715 407 q 738 359 738 385 q 736 338 738 350 l 727 283 l 576 283 m 311 407 l 453 407 l 488 599 l 347 599 l 311 407 z "},"$":{"ha":805,"x_min":47,"x_max":751,"o":"m 321 -6 q 169 38 240 5 q 47 121 98 71 l 100 199 q 119 216 107 210 q 142 223 130 223 q 175 212 158 223 q 215 187 193 201 q 266 158 237 172 q 333 136 294 143 l 359 447 q 262 480 310 461 q 175 529 214 498 q 113 608 136 560 q 89 726 89 655 q 110 829 89 779 q 172 919 132 879 q 271 984 212 958 q 406 1013 330 1010 l 414 1101 q 428 1131 416 1118 q 460 1144 441 1144 l 524 1144 l 512 1007 q 639 965 586 995 q 732 898 692 935 l 690 835 q 671 814 681 821 q 648 807 661 807 q 623 813 637 807 q 590 829 608 820 q 550 849 572 839 q 500 865 528 859 l 476 577 q 575 543 526 562 q 663 496 624 525 q 727 423 703 467 q 751 315 751 380 q 729 194 751 250 q 667 94 708 137 q 565 23 625 50 q 427 -9 505 -4 l 418 -112 q 405 -141 417 -127 q 372 -155 392 -155 l 309 -155 l 321 -6 m 589 288 q 579 334 589 315 q 553 369 570 354 q 513 396 536 385 q 463 416 490 407 l 439 134 q 551 184 513 144 q 589 288 589 224 m 251 743 q 260 696 251 716 q 286 660 269 675 q 324 632 302 644 q 372 610 346 620 l 394 867 q 329 851 356 863 q 284 823 302 840 q 259 786 267 806 q 251 743 251 765 z "},"%":{"ha":1115,"x_min":42,"x_max":1073,"o":"m 506 761 q 487 658 506 704 q 436 580 468 612 q 362 531 404 548 q 273 513 319 513 q 181 531 223 513 q 107 580 138 548 q 59 658 77 612 q 42 761 42 704 q 59 867 42 819 q 107 947 77 914 q 181 997 138 979 q 273 1015 223 1015 q 366 997 323 1015 q 440 947 409 979 q 489 867 471 914 q 506 761 506 819 m 373 761 q 366 829 373 802 q 345 872 358 856 q 313 896 331 889 q 273 903 294 903 q 234 896 252 903 q 203 872 216 889 q 183 829 190 856 q 176 761 176 802 q 183 696 176 722 q 203 654 190 670 q 234 631 216 638 q 273 625 252 625 q 313 631 294 625 q 345 654 331 638 q 366 696 358 670 q 373 761 373 722 m 840 977 q 861 996 848 987 q 895 1004 873 1004 l 1020 1004 l 274 26 q 253 7 266 15 q 222 0 240 0 l 94 0 l 840 977 m 1073 236 q 1054 133 1073 179 q 1002 55 1034 87 q 928 5 970 23 q 840 -12 886 -12 q 748 5 790 -12 q 674 55 705 23 q 626 133 644 87 q 609 236 609 179 q 626 341 609 294 q 674 421 644 389 q 748 472 705 454 q 840 490 790 490 q 932 472 890 490 q 1006 421 975 454 q 1055 341 1038 389 q 1073 236 1073 294 m 941 236 q 933 303 941 277 q 911 347 925 330 q 879 371 898 364 q 840 378 861 378 q 801 371 819 378 q 770 347 783 364 q 750 303 758 330 q 742 236 742 277 q 750 171 742 197 q 770 129 758 144 q 801 105 783 113 q 840 98 819 98 q 879 105 861 98 q 911 129 898 113 q 933 171 925 144 q 941 236 941 197 z "},"&":{"ha":991,"x_min":44,"x_max":994,"o":"m 460 1015 q 569 997 521 1015 q 652 947 618 978 q 706 875 686 916 q 730 791 726 835 l 621 769 q 616 768 618 768 q 612 768 614 768 q 590 775 600 768 q 575 795 581 781 q 559 829 569 813 q 536 858 549 846 q 503 878 522 870 q 460 885 484 885 q 408 875 431 885 q 369 848 385 865 q 345 808 353 831 q 336 760 336 785 q 341 720 336 740 q 355 681 345 701 q 380 641 365 662 q 419 597 396 621 l 686 320 q 723 413 709 364 q 741 511 736 461 q 751 537 742 527 q 776 547 760 547 l 884 547 q 857 372 883 455 q 784 218 831 288 l 994 0 l 826 0 q 803 1 813 0 q 784 6 793 3 q 766 17 774 10 q 749 33 758 23 l 680 104 q 531 20 613 50 q 355 -11 450 -11 q 241 9 296 -11 q 141 66 185 28 q 71 157 98 104 q 44 277 44 210 q 59 365 44 323 q 102 443 75 407 q 166 509 129 479 q 248 558 203 538 q 194 660 211 610 q 177 759 177 710 q 196 858 177 811 q 251 940 215 905 q 340 995 288 975 q 460 1015 393 1015 m 218 290 q 232 222 218 252 q 268 170 245 191 q 321 137 291 149 q 385 125 351 125 q 496 145 446 125 q 589 198 547 164 l 325 469 q 244 388 269 433 q 218 290 218 342 z "},"'":{"ha":330,"x_min":91,"x_max":240,"o":"m 240 1004 l 240 804 l 224 696 q 207 649 219 665 q 165 633 194 633 q 125 649 140 633 q 106 696 111 665 l 91 804 l 91 1004 l 240 1004 z "},"(":{"ha":416,"x_min":73,"x_max":364,"o":"m 222 435 q 257 154 222 292 q 356 -106 292 16 q 362 -122 361 -115 q 364 -136 364 -130 q 357 -159 364 -150 q 340 -173 351 -168 l 264 -220 q 177 -60 213 -140 q 118 101 140 20 q 84 265 95 182 q 73 435 73 349 q 84 606 73 522 q 118 771 95 690 q 177 931 140 852 q 264 1090 213 1011 l 340 1044 q 357 1030 351 1039 q 364 1008 364 1021 q 355 977 364 995 q 257 717 292 856 q 222 435 222 578 z "},")":{"ha":416,"x_min":52,"x_max":342,"o":"m 194 435 q 159 717 194 578 q 60 977 125 856 q 52 1008 52 995 q 58 1030 52 1021 q 75 1044 65 1039 l 151 1090 q 239 931 203 1011 q 298 771 275 852 q 332 606 321 690 q 342 435 342 522 q 332 265 342 349 q 298 101 321 182 q 239 -60 275 20 q 151 -220 203 -140 l 75 -173 q 58 -159 65 -168 q 52 -136 52 -150 q 53 -122 52 -130 q 60 -106 55 -115 q 159 154 125 16 q 194 435 194 292 z "},"*":{"ha":555,"x_min":52,"x_max":501,"o":"m 235 581 l 235 708 q 237 735 235 722 q 243 760 239 749 q 225 743 235 751 q 203 728 215 735 l 93 664 l 52 733 l 163 798 q 187 810 175 805 q 213 817 199 814 q 187 824 199 818 q 163 837 175 829 l 52 901 l 92 971 l 203 905 q 225 890 215 898 q 244 872 236 882 q 237 897 239 884 q 235 924 235 910 l 235 1053 l 317 1053 l 317 926 q 316 898 317 911 q 309 872 314 884 q 327 890 317 882 q 350 905 338 898 l 460 970 l 501 900 l 391 837 q 366 824 378 829 q 340 817 353 819 q 391 798 364 812 l 501 732 l 460 663 l 350 728 q 327 743 338 735 q 309 760 317 751 q 317 709 317 739 l 317 581 l 235 581 z "},"+":{"ha":805,"x_min":63,"x_max":741,"o":"m 471 814 l 471 530 l 741 530 l 741 403 l 471 403 l 471 117 l 332 117 l 332 403 l 63 403 l 63 530 l 332 530 l 332 814 l 471 814 z "},",":{"ha":312,"x_min":55,"x_max":260,"o":"m 55 106 q 62 142 55 125 q 83 172 70 159 q 115 192 96 184 q 155 199 134 199 q 201 190 182 199 q 234 164 221 180 q 254 127 248 148 q 260 82 260 106 q 250 12 260 49 q 220 -62 239 -25 q 172 -133 201 -98 q 107 -197 144 -168 l 77 -170 q 64 -144 64 -160 q 68 -132 64 -139 q 78 -119 73 -125 q 97 -99 85 -111 q 119 -71 108 -87 q 139 -37 130 -56 q 153 2 149 -19 q 113 10 132 2 q 82 32 95 18 q 62 65 70 46 q 55 106 55 83 z "},"-":{"ha":498,"x_min":69,"x_max":429,"o":"m 69 491 l 429 491 l 429 348 l 69 348 l 69 491 z "},".":{"ha":312,"x_min":50,"x_max":260,"o":"m 50 94 q 58 135 50 116 q 81 169 66 155 q 114 191 95 182 q 156 199 134 199 q 197 191 177 199 q 230 169 216 182 q 252 135 244 155 q 260 94 260 116 q 252 53 260 72 q 230 20 244 34 q 197 -2 216 6 q 156 -9 177 -9 q 114 -2 134 -9 q 81 20 95 6 q 58 53 66 34 q 50 94 50 72 z "},"/":{"ha":537,"x_min":-12,"x_max":554,"o":"m 152 -2 q 136 -30 145 -18 q 114 -50 126 -41 q 87 -62 101 -58 q 60 -66 73 -66 l -12 -66 l 393 972 q 427 1017 405 1001 q 481 1032 450 1032 l 554 1032 l 152 -2 z "},":":{"ha":368,"x_min":78,"x_max":288,"o":"m 78 94 q 86 135 78 116 q 109 169 94 155 q 142 191 123 182 q 184 199 161 199 q 224 191 205 199 q 258 169 244 182 q 280 135 272 155 q 288 94 288 116 q 280 53 288 72 q 258 20 272 34 q 224 -2 244 6 q 184 -9 205 -9 q 142 -2 161 -9 q 109 20 123 6 q 86 53 94 34 q 78 94 78 72 m 78 589 q 86 630 78 611 q 109 664 94 650 q 142 686 123 677 q 184 694 161 694 q 224 686 205 694 q 258 664 244 677 q 280 630 272 650 q 288 589 288 611 q 280 548 288 568 q 258 515 272 529 q 224 493 244 501 q 184 486 205 486 q 142 493 161 486 q 109 515 123 501 q 86 548 94 529 q 78 589 78 568 z "},";":{"ha":368,"x_min":78,"x_max":288,"o":"m 83 106 q 90 142 83 125 q 111 172 98 159 q 143 192 124 184 q 184 199 161 199 q 230 190 210 199 q 262 164 249 180 q 281 127 275 148 q 288 82 288 106 q 278 12 288 49 q 248 -62 268 -25 q 200 -133 229 -98 q 135 -197 172 -168 l 105 -170 q 93 -144 93 -160 q 97 -132 93 -139 q 106 -119 100 -125 q 124 -99 113 -111 q 147 -71 136 -87 q 167 -37 158 -56 q 181 2 176 -19 q 141 10 159 2 q 111 32 123 18 q 90 65 98 46 q 83 106 83 83 m 78 589 q 86 630 78 611 q 109 664 94 650 q 142 686 123 677 q 184 694 161 694 q 224 686 205 694 q 258 664 244 677 q 280 630 272 650 q 288 589 288 611 q 280 548 288 568 q 258 515 272 529 q 224 493 244 501 q 184 486 205 486 q 142 493 161 486 q 109 515 123 501 q 86 548 94 529 q 78 589 78 568 z "},"<":{"ha":805,"x_min":96,"x_max":646,"o":"m 96 503 l 646 789 l 646 667 q 640 642 646 654 q 616 623 633 631 l 364 493 q 331 479 349 485 q 293 468 313 473 q 331 457 313 463 q 364 443 349 452 l 616 313 q 640 294 633 305 q 646 268 646 282 l 646 146 l 96 433 l 96 503 z "},"=":{"ha":805,"x_min":94,"x_max":709,"o":"m 94 408 l 709 408 l 709 281 l 94 281 l 94 408 m 94 653 l 709 653 l 709 526 l 94 526 l 94 653 z "},">":{"ha":805,"x_min":159,"x_max":709,"o":"m 159 146 l 159 268 q 165 294 159 282 q 189 313 172 305 l 441 443 q 512 468 471 458 q 474 479 492 473 q 441 493 456 485 l 189 623 q 165 642 172 631 q 159 667 159 654 l 159 789 l 709 503 l 709 433 l 159 146 z "},"?":{"ha":584,"x_min":25,"x_max":561,"o":"m 25 913 q 77 953 49 934 q 138 986 105 972 q 209 1007 170 1000 q 291 1015 247 1015 q 401 999 351 1015 q 486 951 451 982 q 541 877 522 920 q 561 779 561 833 q 545 687 561 726 q 507 620 530 648 q 456 571 484 591 q 405 532 429 550 q 363 496 380 513 q 342 456 345 478 l 326 354 l 208 354 l 197 467 q 196 473 196 471 q 196 479 196 475 q 211 532 196 510 q 250 575 227 555 q 299 613 273 595 q 348 654 325 632 q 386 703 371 675 q 401 769 401 731 q 392 813 401 793 q 366 848 382 833 q 326 869 349 862 q 276 877 303 877 q 209 868 236 877 q 162 849 181 860 q 130 829 143 838 q 106 821 117 821 q 71 842 81 821 l 25 913 m 157 94 q 164 135 157 116 q 186 169 172 155 q 220 191 201 182 q 262 199 239 199 q 303 191 283 199 q 336 169 322 182 q 358 135 350 155 q 367 94 367 116 q 358 53 367 72 q 336 20 350 34 q 303 -2 322 6 q 262 -9 283 -9 q 220 -2 239 -9 q 186 20 201 6 q 164 53 172 34 q 157 94 157 72 z "},"@":{"ha":1142,"x_min":46,"x_max":1100,"o":"m 809 127 q 725 150 762 127 q 673 222 688 172 q 586 150 632 172 q 488 128 541 128 q 412 143 444 128 q 358 185 380 159 q 325 249 336 212 q 314 328 314 286 q 324 409 314 368 q 354 487 334 450 q 405 558 374 525 q 476 615 435 591 q 568 654 517 640 q 680 669 618 669 q 772 661 734 669 q 846 637 810 652 l 779 379 q 768 305 768 335 q 773 270 768 284 q 787 248 778 256 q 808 236 795 239 q 835 233 821 233 q 890 252 864 233 q 936 303 916 270 q 966 383 955 337 q 978 483 978 429 q 950 642 978 573 q 871 757 922 711 q 751 826 821 803 q 597 849 681 849 q 429 815 507 849 q 293 721 351 781 q 203 580 236 661 q 171 405 171 498 q 207 204 171 291 q 304 60 242 118 q 449 -27 366 2 q 630 -56 533 -56 q 730 -51 684 -56 q 815 -35 777 -45 q 886 -12 854 -24 q 943 16 918 1 q 967 24 957 24 q 996 1 987 24 l 1019 -60 q 850 -138 947 -108 q 630 -168 753 -168 q 397 -128 505 -168 q 212 -14 290 -88 q 90 166 134 60 q 46 405 46 272 q 65 549 46 479 q 120 681 84 619 q 205 794 155 743 q 316 882 255 845 q 448 939 377 919 q 597 960 519 960 q 787 927 696 960 q 947 832 878 894 q 1059 683 1017 771 q 1100 483 1100 594 q 1078 343 1100 408 q 1017 231 1057 279 q 925 155 978 182 q 809 127 872 127 m 522 239 q 558 244 540 239 q 593 264 576 250 q 624 302 610 279 q 647 361 637 326 l 698 557 q 652 561 675 561 q 571 542 608 561 q 506 492 534 524 q 463 418 479 460 q 447 332 447 377 q 466 263 447 288 q 522 239 485 239 z "},"{":{"ha":416,"x_min":20,"x_max":366,"o":"m 103 285 q 83 354 103 327 q 20 380 64 380 l 20 480 q 83 507 64 480 q 103 576 103 533 q 99 641 103 608 q 88 706 94 673 q 78 771 82 739 q 73 838 73 804 q 89 935 73 891 q 135 1009 104 978 q 215 1057 167 1040 q 329 1074 263 1074 l 366 1074 l 366 998 q 362 982 366 989 q 352 971 358 976 q 340 965 346 967 q 329 963 334 963 l 322 963 q 248 932 274 963 q 222 848 222 902 q 227 775 222 810 q 235 707 231 741 q 244 642 240 674 q 248 578 248 610 q 241 528 248 551 q 219 485 233 504 q 185 451 205 466 q 140 430 165 437 q 185 408 165 422 q 219 374 205 394 q 241 331 233 355 q 248 282 248 308 q 244 217 248 250 q 235 152 240 185 q 227 84 231 119 q 222 11 222 50 q 248 -72 222 -41 q 322 -103 274 -103 l 329 -103 q 340 -105 334 -103 q 352 -111 346 -107 q 362 -122 358 -115 q 366 -138 366 -129 l 366 -214 l 329 -214 q 215 -197 263 -214 q 135 -149 167 -180 q 89 -75 104 -118 q 73 22 73 -31 q 78 89 73 56 q 88 154 82 121 q 99 219 94 186 q 103 285 103 252 z "},"|":{"ha":416,"x_min":141,"x_max":275,"o":"m 141 1074 l 275 1074 l 275 -233 l 141 -233 l 141 1074 z "},"}":{"ha":416,"x_min":50,"x_max":396,"o":"m 313 285 q 317 219 313 252 q 328 154 321 186 q 338 89 334 121 q 342 22 342 56 q 327 -75 342 -31 q 280 -149 312 -118 q 201 -197 249 -180 q 87 -214 153 -214 l 50 -214 l 50 -138 q 54 -122 50 -129 q 64 -111 58 -115 q 76 -105 70 -107 q 87 -103 82 -103 l 93 -103 q 168 -72 142 -103 q 193 11 193 -41 q 189 84 193 50 q 180 152 185 119 q 172 217 176 185 q 168 282 168 250 q 175 331 168 308 q 196 374 182 355 q 230 408 210 394 q 275 430 250 422 q 230 451 250 437 q 196 485 210 466 q 175 528 182 504 q 168 578 168 551 q 172 642 168 610 q 180 707 176 674 q 189 775 185 741 q 193 848 193 810 q 168 932 193 902 q 93 963 142 963 l 87 963 q 76 965 82 963 q 64 971 70 967 q 54 982 58 976 q 50 998 50 989 l 50 1074 l 87 1074 q 201 1057 153 1074 q 280 1009 249 1040 q 327 935 312 978 q 342 838 342 891 q 338 771 342 804 q 328 706 334 739 q 317 641 321 673 q 313 576 313 608 q 332 507 313 533 q 396 480 352 480 l 396 380 q 332 354 352 380 q 313 285 313 327 z "},"~":{"ha":805,"x_min":68,"x_max":737,"o":"m 517 450 q 577 475 556 450 q 599 545 599 500 l 737 545 q 723 448 737 492 q 682 374 709 405 q 616 327 655 343 q 528 310 578 310 q 457 319 491 310 q 393 340 423 329 q 336 362 363 352 q 288 372 310 372 q 228 347 249 372 q 206 277 206 321 l 68 277 q 82 373 68 330 q 123 448 96 416 q 189 495 150 479 q 277 512 228 512 q 348 502 315 512 q 412 481 382 492 q 469 460 442 469 q 517 450 495 450 z "},"​":{"ha":0,"x_min":0,"x_max":0,"o":""},"«":{"ha":675,"x_min":85,"x_max":574,"o":"m 85 363 l 85 385 l 262 660 l 319 633 q 339 617 333 627 q 345 596 345 608 q 336 566 345 581 l 240 403 q 218 374 231 385 q 240 345 229 364 l 336 180 q 345 150 345 165 q 319 114 345 126 l 262 87 l 85 363 m 313 363 l 313 385 l 491 660 l 547 633 q 567 617 561 627 q 574 596 574 608 q 565 566 574 581 l 469 403 q 447 374 459 385 q 469 345 458 364 l 565 180 q 574 150 574 165 q 547 114 574 126 l 491 87 l 313 363 z "},"­":{"ha":498,"x_min":69,"x_max":429,"o":"m 69 491 l 429 491 l 429 348 l 69 348 l 69 491 z "},"»":{"ha":675,"x_min":100,"x_max":589,"o":"m 182 87 l 126 114 q 106 130 112 120 q 100 151 100 140 q 109 180 100 165 l 205 345 q 227 374 216 364 q 205 403 214 385 l 109 566 q 100 596 100 581 q 126 633 100 621 l 182 660 l 360 385 l 360 363 l 182 87 m 411 87 l 355 114 q 334 130 340 120 q 328 151 328 140 q 337 180 328 165 l 433 345 q 455 374 444 364 q 433 403 443 385 l 337 566 q 328 596 328 581 q 355 633 328 621 l 411 660 l 589 385 l 589 363 l 411 87 z "},"ក":{"ha":1072,"x_min":170,"x_max":902,"o":"m 339 0 l 170 0 l 170 475 q 536 814 170 814 q 902 475 902 814 l 902 0 l 732 0 l 732 475 q 536 678 732 678 q 339 475 339 678 l 339 0 m 902 1017 l 902 882 l 170 882 l 170 1017 l 902 1017 z "},"ខ":{"ha":1072,"x_min":170,"x_max":902,"o":"m 170 444 q 732 746 732 538 q 536 882 732 882 q 339 746 339 882 q 376 664 339 664 q 481 688 399 664 l 481 585 q 385 557 444 557 q 170 746 170 557 q 536 1017 170 1017 q 902 746 902 1017 q 339 344 902 466 l 339 271 q 536 136 339 136 q 732 271 732 136 q 653 414 732 380 l 781 482 q 902 271 902 399 q 536 0 902 0 q 170 271 170 0 l 170 444 z "},"គ":{"ha":1072,"x_min":170,"x_max":902,"o":"m 902 1017 l 902 882 l 170 882 l 170 1017 l 902 1017 m 338 271 q 475 339 407 339 l 563 339 l 563 197 l 475 197 q 339 100 387 197 l 339 0 l 170 0 l 170 475 q 536 814 170 814 q 902 475 902 814 l 902 0 l 732 0 l 732 475 q 536 678 732 678 q 339 475 339 678 l 338 271 z "},"ឃ":{"ha":1546,"x_min":68,"x_max":1411,"o":"m 203 901 q 176 892 182 901 q 170 863 170 883 q 176 834 170 843 q 203 824 182 825 l 203 901 m 170 708 q 93 748 118 712 q 68 865 68 785 q 93 981 68 945 q 203 1017 118 1017 q 314 981 289 1017 q 339 865 339 945 l 339 339 q 502 136 339 136 q 688 339 688 136 l 688 746 q 621 856 688 802 l 621 916 q 749 1017 621 1017 l 892 1017 l 892 882 l 777 882 l 777 873 q 858 746 858 819 l 858 339 q 1044 136 858 136 q 1207 339 1207 136 l 1207 746 q 1139 856 1207 802 l 1139 916 q 1268 1017 1139 1017 l 1411 1017 l 1411 882 l 1295 882 l 1295 873 q 1377 746 1377 819 l 1377 339 q 1044 0 1377 0 q 773 96 817 0 q 502 0 730 0 q 170 339 170 0 l 170 708 z "},"ង":{"ha":1072,"x_min":68,"x_max":902,"o":"m 203 494 q 176 485 182 494 q 170 456 170 476 q 176 427 170 436 q 203 417 182 418 l 203 494 m 339 177 l 536 355 l 732 177 l 732 576 q 653 717 732 658 q 461 678 613 678 q 234 721 298 678 q 170 858 170 764 q 197 963 170 920 q 224 1048 224 1005 q 136 1085 224 1085 l 136 1221 q 380 1092 380 1221 q 353 984 380 1046 q 326 889 326 921 q 354 834 326 854 q 466 814 382 814 q 574 835 538 814 q 529 922 529 872 q 678 1017 529 1017 q 834 902 834 1017 q 770 802 834 851 q 902 610 902 706 l 902 0 l 720 0 l 536 184 l 351 0 l 170 0 l 170 301 q 93 341 118 305 q 68 458 68 378 q 93 574 68 538 q 203 610 118 610 q 314 574 289 610 q 339 458 339 538 l 339 177 m 677 867 l 698 882 q 709 901 709 892 q 681 922 709 922 q 654 905 654 922 q 662 888 654 895 l 677 867 z "},"ច":{"ha":1072,"x_min":136,"x_max":902,"o":"m 766 651 q 745 644 750 651 q 739 628 739 637 q 744 614 739 619 q 766 606 749 606 l 766 651 m 170 746 q 136 854 170 800 l 136 882 q 298 1017 136 1017 l 902 1017 l 902 882 l 346 882 q 305 868 305 882 q 339 746 339 814 l 339 339 q 536 136 339 136 q 732 339 732 136 l 732 511 q 648 552 678 513 q 624 627 624 582 q 653 709 624 673 q 766 746 682 746 q 873 709 844 746 q 902 627 902 673 l 902 339 q 536 0 902 0 q 170 339 170 0 l 170 746 z "},"ឆ":{"ha":1072,"x_min":136,"x_max":902,"o":"m 766 651 q 745 644 750 651 q 739 628 739 637 q 744 614 739 619 q 766 606 749 606 l 766 651 m 170 746 q 136 854 170 800 l 136 882 q 298 1017 136 1017 l 902 1017 l 902 882 l 346 882 q 305 868 305 882 q 339 746 339 814 l 339 339 l 410 339 q 570 203 570 339 q 651 136 570 136 q 732 203 732 136 l 732 511 q 648 552 678 513 q 624 627 624 582 q 653 709 624 673 q 766 746 682 746 q 873 709 844 746 q 902 627 902 673 l 902 203 q 671 0 902 0 q 400 136 400 0 q 370 203 400 203 q 339 142 339 203 l 339 0 l 170 0 l 170 746 z "},"ជ":{"ha":1072,"x_min":136,"x_max":902,"o":"m 170 746 q 136 854 170 800 l 136 882 q 298 1017 136 1017 l 517 1017 l 673 949 l 712 949 q 732 963 732 949 l 732 1119 l 902 1119 l 902 963 q 760 814 902 814 l 623 814 l 467 882 l 346 882 q 305 868 305 882 q 339 746 339 814 l 339 208 l 536 374 l 732 208 l 732 746 l 902 746 l 902 0 l 755 0 l 536 189 l 316 0 l 170 0 l 170 746 z "},"ឈ":{"ha":1885,"x_min":170,"x_max":1750,"o":"m 305 116 q 333 125 326 116 q 339 154 339 134 q 333 183 339 174 q 305 193 326 192 l 305 116 m 170 678 q 480 1017 170 1017 q 790 678 790 1017 l 790 339 q 943 136 790 136 q 1095 339 1095 136 l 1095 746 q 1027 856 1095 802 l 1027 916 q 1156 1017 1027 1017 l 1299 1017 l 1299 882 l 1183 882 l 1183 873 q 1265 746 1265 819 l 1265 339 q 1417 136 1265 136 q 1546 339 1546 136 l 1546 746 q 1478 856 1546 802 l 1478 916 q 1607 1017 1478 1017 l 1750 1017 l 1750 882 l 1634 882 l 1634 873 q 1716 746 1716 819 l 1716 339 q 1417 0 1716 0 q 1180 96 1223 0 q 943 0 1137 0 q 621 339 621 0 l 621 678 q 480 882 621 882 q 339 678 339 882 l 339 309 q 416 269 391 305 q 441 153 441 233 q 406 43 441 86 q 305 0 370 0 q 205 40 240 0 q 170 153 170 79 l 170 678 z "},"ញ":{"ha":1546,"x_min":170,"x_max":1377,"o":"m 305 116 q 333 125 326 116 q 339 154 339 134 q 333 183 339 174 q 305 193 326 192 l 305 116 m 1187 -140 q 1112 -77 1112 -115 q 1222 -34 1112 -34 q 1377 -156 1377 -34 q 841 -339 1377 -339 q 437 -271 556 -339 q 170 -203 319 -203 l 170 -68 q 498 -136 380 -68 q 841 -203 617 -203 q 1143 -186 1072 -203 q 1214 -142 1214 -168 q 1207 -131 1214 -131 q 1187 -140 1200 -131 m 816 906 l 1021 1017 l 1078 1017 q 1377 746 1377 1017 l 1377 0 l 1207 0 l 1207 746 q 1078 882 1207 882 l 1063 882 l 902 805 l 902 0 l 732 0 l 732 760 l 684 821 l 536 714 l 387 821 l 339 760 l 339 309 q 416 269 391 305 q 441 153 441 233 q 406 43 441 86 q 305 0 370 0 q 205 40 240 0 q 170 153 170 79 l 170 806 l 368 1036 l 536 896 l 703 1036 l 816 906 z "},"ដ":{"ha":1072,"x_min":170,"x_max":902,"o":"m 170 712 l 339 712 l 339 211 l 536 389 l 732 211 l 732 712 l 902 712 l 902 0 l 755 0 l 536 189 l 316 0 l 170 0 l 170 712 m 339 909 q 536 895 339 895 q 732 1017 732 895 l 732 1119 l 902 1119 l 902 1017 q 536 760 902 760 q 170 909 170 760 q 309 1017 170 1017 q 434 989 397 1017 l 434 913 q 345 924 351 924 q 339 909 339 924 z "},"ឋ":{"ha":1072,"x_min":68,"x_max":1004,"o":"m 203 901 q 176 892 182 901 q 170 863 170 883 q 176 834 170 843 q 203 824 182 825 l 203 901 m 339 339 q 536 136 339 136 q 732 339 732 136 l 732 746 q 665 856 732 802 l 665 916 q 793 1017 665 1017 l 814 1017 l 848 970 l 848 1119 l 1004 1119 l 1004 997 q 861 882 1004 882 l 821 882 l 821 873 q 902 746 902 819 l 902 339 q 536 0 902 0 q 170 339 170 0 l 170 708 q 93 748 118 712 q 68 865 68 785 q 93 981 68 945 q 203 1017 118 1017 q 314 981 289 1017 q 339 865 339 945 l 339 339 z "},"ឌ":{"ha":1072,"x_min":170,"x_max":902,"o":"m 339 746 q 376 698 339 698 q 481 722 399 698 l 481 585 q 385 557 444 557 q 170 746 170 557 l 170 800 l 368 1036 l 536 896 l 704 1036 l 902 800 l 902 746 q 339 344 902 466 l 339 271 q 387 136 339 136 q 732 317 475 136 l 732 407 l 902 407 l 902 0 l 732 0 l 732 164 q 387 0 544 0 q 170 271 170 0 l 170 444 q 732 746 732 538 l 732 774 l 686 832 l 536 712 l 386 832 l 339 774 l 339 746 z "},"ឍ":{"ha":1546,"x_min":170,"x_max":1411,"o":"m 305 116 q 333 125 326 116 q 339 154 339 134 q 333 183 339 174 q 305 193 326 192 l 305 116 m 170 800 l 368 1036 l 536 896 l 704 1036 l 902 800 l 902 339 q 1112 203 1112 339 q 1160 136 1112 136 q 1207 203 1207 136 l 1207 746 q 1139 856 1207 802 l 1139 916 q 1268 1017 1139 1017 l 1411 1017 l 1411 882 l 1295 882 l 1295 873 q 1377 746 1377 819 l 1377 170 q 1180 0 1377 0 q 943 136 943 0 q 909 203 943 203 l 902 203 l 902 0 l 732 0 l 732 774 l 686 832 l 536 712 l 386 832 l 339 774 l 339 309 q 416 269 391 305 q 441 153 441 233 q 406 43 441 86 q 305 0 370 0 q 205 40 240 0 q 170 153 170 79 l 170 800 z "},"ណ":{"ha":1885,"x_min":170,"x_max":1716,"o":"m 305 116 q 333 125 326 116 q 339 154 339 134 q 333 183 339 174 q 305 193 326 192 l 305 116 m 170 678 q 480 1017 170 1017 q 790 678 790 1017 l 790 214 l 943 415 l 1095 214 l 1095 678 q 1406 1017 1095 1017 q 1716 678 1716 1017 l 1716 0 l 1546 0 l 1546 678 q 1406 882 1546 882 q 1265 678 1265 882 l 1265 0 l 1066 0 l 943 173 l 819 0 l 621 0 l 621 678 q 480 882 621 882 q 339 678 339 882 l 339 309 q 416 269 391 305 q 441 153 441 233 q 406 43 441 86 q 305 0 370 0 q 205 40 240 0 q 170 153 170 79 l 170 678 z "},"ត":{"ha":1072,"x_min":170,"x_max":902,"o":"m 305 116 q 333 125 326 116 q 339 154 339 134 q 333 183 339 174 q 305 193 326 192 l 305 116 m 902 1017 l 902 882 l 170 882 l 170 1017 l 902 1017 m 170 475 q 536 814 170 814 q 902 475 902 814 l 902 0 l 732 0 l 732 475 q 536 678 732 678 q 339 475 339 678 l 339 309 q 416 269 391 305 q 441 153 441 233 q 406 43 441 86 q 305 0 370 0 q 205 40 240 0 q 170 153 170 79 l 170 475 z "},"ថ":{"ha":1072,"x_min":136,"x_max":902,"o":"m 766 651 q 745 644 750 651 q 739 628 739 637 q 744 614 739 619 q 766 606 749 606 l 766 651 m 339 746 l 339 339 q 536 136 339 136 q 732 339 732 136 l 732 511 q 648 552 678 513 q 624 627 624 582 q 653 709 624 673 q 766 746 682 746 q 873 709 844 746 q 902 627 902 673 l 902 339 q 536 0 902 0 q 170 339 170 0 l 170 746 q 136 854 170 800 l 136 882 q 298 1017 136 1017 l 517 1017 l 673 949 l 712 949 q 732 963 732 949 l 732 1119 l 902 1119 l 902 963 q 760 814 902 814 l 623 814 l 467 882 l 346 882 q 305 868 305 882 q 339 746 339 814 z "},"ទ":{"ha":1072,"x_min":170,"x_max":902,"o":"m 800 416 q 787 436 800 436 q 773 416 773 436 q 800 387 773 390 l 800 416 m 807 300 l 807 271 q 536 0 807 0 q 264 271 264 0 l 264 407 l 434 407 l 434 271 q 536 136 434 136 q 637 271 637 136 l 637 328 q 170 746 170 496 q 536 1017 170 1017 q 902 746 902 1017 q 686 557 902 557 q 590 585 627 557 l 590 729 q 696 705 673 705 q 732 746 732 705 q 536 882 732 882 q 339 746 339 882 q 637 459 339 532 q 760 515 637 515 q 902 431 902 515 q 874 329 902 354 q 807 300 847 304 z "},"ធ":{"ha":1072,"x_min":136,"x_max":902,"o":"m 766 651 q 745 644 750 651 q 739 628 739 637 q 744 614 739 619 q 766 606 749 606 l 766 651 m 170 746 q 136 854 170 800 l 136 882 q 298 1017 136 1017 l 902 1017 l 902 882 l 346 882 q 305 868 305 882 q 339 746 339 814 l 339 208 l 536 374 l 732 208 l 732 511 q 648 552 678 513 q 624 627 624 582 q 653 709 624 673 q 766 746 682 746 q 873 709 844 746 q 902 627 902 673 l 902 0 l 755 0 l 536 189 l 316 0 l 170 0 l 170 746 z "},"ន":{"ha":1072,"x_min":170,"x_max":902,"o":"m 902 443 l 902 271 q 685 0 902 0 q 457 85 524 0 q 339 170 390 170 l 339 0 l 170 0 l 170 407 l 339 407 l 339 305 q 525 220 451 305 q 656 136 600 136 q 732 271 732 136 l 732 344 q 170 746 170 466 q 536 1017 170 1017 q 902 746 902 1017 q 686 557 902 557 q 590 585 627 557 l 590 722 q 696 698 673 698 q 732 746 732 698 q 536 882 732 882 q 339 746 339 882 q 902 443 339 572 z "},"ប":{"ha":1072,"x_min":102,"x_max":936,"o":"m 732 746 q 665 856 732 802 l 665 916 q 793 1017 665 1017 l 936 1017 l 936 882 l 821 882 l 821 873 q 902 746 902 819 l 902 339 q 536 0 902 0 q 170 339 170 0 l 170 746 q 102 856 170 802 l 102 916 q 231 1017 102 1017 l 373 1017 l 373 882 l 258 882 l 258 873 q 339 746 339 819 l 339 339 q 536 136 339 136 q 732 339 732 136 l 732 746 z "},"ផ":{"ha":1072,"x_min":136,"x_max":902,"o":"m 766 651 q 745 644 750 651 q 739 628 739 637 q 744 614 739 619 q 766 606 749 606 l 766 651 m 170 746 q 136 854 170 800 l 136 882 q 298 1017 136 1017 l 517 1017 l 673 949 l 712 949 q 732 963 732 949 l 732 1119 l 902 1119 l 902 963 q 760 814 902 814 l 623 814 l 467 882 l 346 882 q 305 868 305 882 q 339 746 339 814 l 339 208 l 536 374 l 732 208 l 732 511 q 648 552 678 513 q 624 627 624 582 q 653 709 624 673 q 766 746 682 746 q 873 709 844 746 q 902 627 902 673 l 902 0 l 732 0 l 536 189 l 316 0 l 170 0 l 170 746 z "},"ព":{"ha":1072,"x_min":170,"x_max":902,"o":"m 305 116 q 333 125 326 116 q 339 154 339 134 q 333 183 339 174 q 305 193 326 192 l 305 116 m 170 806 l 368 1036 l 536 896 l 703 1036 l 902 806 l 902 0 l 732 0 l 732 760 l 684 821 l 536 714 l 387 821 l 339 760 l 339 309 q 416 269 391 305 q 441 153 441 233 q 406 43 441 86 q 305 0 370 0 q 205 40 240 0 q 170 153 170 79 l 170 806 z "},"ភ":{"ha":1069,"x_min":61,"x_max":900,"o":"m 191 276 q 168 475 168 382 q 534 814 168 814 q 900 475 900 814 l 900 0 l 730 0 l 730 475 q 534 678 730 678 q 337 475 337 678 q 405 115 337 310 q 372 37 405 73 q 256 0 339 0 q 135 48 171 0 q 61 239 98 96 l 191 276 m 900 1017 l 900 882 l 168 882 l 168 1017 l 900 1017 z "},"ម":{"ha":1072,"x_min":102,"x_max":936,"o":"m 339 441 l 339 339 q 536 136 339 136 q 732 339 732 136 l 732 441 l 339 441 m 732 746 q 665 856 732 802 l 665 916 q 793 1017 665 1017 l 936 1017 l 936 882 l 821 882 l 821 873 q 902 746 902 819 l 902 339 q 536 0 902 0 q 170 339 170 0 l 170 746 q 102 856 170 802 l 102 916 q 231 1017 102 1017 l 373 1017 l 373 882 l 258 882 l 258 873 q 339 746 339 819 l 339 576 l 732 576 l 732 746 z "},"យ":{"ha":1546,"x_min":170,"x_max":1411,"o":"m 305 878 q 328 885 322 878 q 332 899 332 890 q 327 915 332 908 q 305 922 321 922 l 305 878 m 339 339 q 502 136 339 136 q 688 339 688 136 l 688 746 q 621 856 688 802 l 621 916 q 749 1017 621 1017 l 892 1017 l 892 882 l 777 882 l 777 873 q 858 746 858 819 l 858 339 q 1044 136 858 136 q 1207 339 1207 136 l 1207 746 q 1139 856 1207 802 l 1139 916 q 1268 1017 1139 1017 l 1411 1017 l 1411 882 l 1295 882 l 1295 873 q 1377 746 1377 819 l 1377 339 q 1044 0 1377 0 q 773 96 817 0 q 502 0 730 0 q 170 339 170 0 l 170 899 q 199 981 170 944 q 305 1017 228 1017 q 418 981 389 1017 q 448 899 448 944 q 423 823 448 853 q 339 782 393 784 l 339 339 z "},"រ":{"ha":509,"x_min":68,"x_max":373,"o":"m 203 193 q 176 183 182 192 q 170 154 170 174 q 176 125 170 134 q 203 116 182 116 l 203 193 m 170 746 q 102 856 170 802 l 102 916 q 231 1017 102 1017 l 373 1017 l 373 882 l 258 882 l 258 873 q 339 746 339 819 l 339 153 q 304 36 339 73 q 203 0 269 0 q 103 36 138 0 q 68 153 68 73 q 93 269 68 233 q 170 309 118 305 l 170 746 z "},"ល":{"ha":1546,"x_min":170,"x_max":1411,"o":"m 305 116 q 333 125 326 116 q 339 154 339 134 q 333 183 339 174 q 305 193 326 192 l 305 116 m 170 678 q 514 1017 170 1017 q 858 678 858 1017 l 858 339 q 1044 136 858 136 q 1207 339 1207 136 l 1207 746 q 1139 856 1207 802 l 1139 916 q 1268 1017 1139 1017 l 1411 1017 l 1411 882 l 1295 882 l 1295 873 q 1377 746 1377 819 l 1377 339 q 1044 0 1377 0 q 688 339 688 0 l 688 678 q 514 882 688 882 q 339 678 339 882 l 339 309 q 416 269 391 305 q 441 153 441 233 q 406 43 441 86 q 305 0 370 0 q 205 40 240 0 q 170 153 170 79 l 170 678 z "},"វ":{"ha":509,"x_min":68,"x_max":441,"o":"m 203 193 q 176 183 182 192 q 170 154 170 174 q 176 125 170 134 q 203 116 182 116 l 203 193 m 339 746 l 339 153 q 304 36 339 73 q 203 0 269 0 q 103 36 138 0 q 68 153 68 73 q 93 269 68 233 q 170 309 118 305 l 170 746 q 102 856 170 802 l 102 916 q 231 1017 102 1017 l 251 1017 l 285 970 l 285 1119 l 441 1119 l 441 997 q 298 882 441 882 l 258 882 l 258 873 q 339 746 339 819 z "},"ឝ":{"ha":1072,"x_min":170,"x_max":1038,"o":"m 902 1017 l 902 882 l 170 882 l 170 1017 l 902 1017 m 902 339 l 1038 339 l 1038 203 l 902 203 l 902 0 l 732 0 l 732 203 l 597 203 l 597 339 l 732 339 l 732 475 q 536 678 732 678 q 339 475 339 678 l 338 271 q 475 339 407 339 l 563 339 l 563 197 l 475 197 q 339 100 387 197 l 339 0 l 170 0 l 170 475 q 536 814 170 814 q 902 475 902 814 l 902 339 z "},"ឞ":{"ha":1072,"x_min":102,"x_max":1038,"o":"m 732 543 l 732 746 q 665 856 732 802 l 665 916 q 793 1017 665 1017 l 936 1017 l 936 882 l 821 882 l 821 873 q 902 746 902 819 l 902 543 l 1038 543 l 1038 407 l 902 407 l 902 339 q 536 0 902 0 q 170 339 170 0 l 170 746 q 102 856 170 802 l 102 916 q 231 1017 102 1017 l 373 1017 l 373 882 l 258 882 l 258 873 q 339 746 339 819 l 339 339 q 536 136 339 136 q 732 339 732 136 l 732 407 l 597 407 l 597 543 l 732 543 z "},"ស":{"ha":1546,"x_min":170,"x_max":1411,"o":"m 305 116 q 333 125 326 116 q 339 154 339 134 q 333 183 339 174 q 305 193 326 192 l 305 116 m 170 475 q 299 762 170 678 q 203 855 261 825 l 203 916 q 332 1017 203 1017 l 732 1017 l 732 882 l 373 882 l 373 874 q 449 811 427 845 q 514 814 464 814 q 858 475 858 814 l 858 339 q 1044 136 858 136 q 1207 339 1207 136 l 1207 746 q 1139 856 1207 802 l 1139 916 q 1268 1017 1139 1017 l 1411 1017 l 1411 882 l 1295 882 l 1295 873 q 1377 746 1377 819 l 1377 339 q 1044 0 1377 0 q 688 339 688 0 l 688 475 q 514 678 688 678 q 339 475 339 678 l 339 309 q 416 269 391 305 q 441 153 441 233 q 406 43 441 86 q 305 0 370 0 q 205 40 240 0 q 170 153 170 79 l 170 475 z "},"ហ":{"ha":1546,"x_min":102,"x_max":1377,"o":"m 339 746 l 339 339 q 502 136 339 136 q 688 339 688 136 l 688 678 q 1032 1017 688 1017 q 1377 678 1377 1017 l 1377 0 l 1207 0 l 1207 678 q 1032 882 1207 882 q 858 678 858 882 l 858 339 q 502 0 858 0 q 170 339 170 0 l 170 746 q 102 856 170 802 l 102 916 q 231 1017 102 1017 l 373 1017 l 373 882 l 258 882 l 258 873 q 339 746 339 819 z "},"ឡ":{"ha":1526,"x_min":170,"x_max":1390,"o":"m 1187 746 q 1119 856 1187 802 l 1119 916 q 1248 1017 1119 1017 l 1390 1017 l 1390 882 l 1275 882 l 1275 873 q 1356 746 1356 819 l 1356 -441 l 1161 -441 l 1044 -324 l 928 -441 l 732 -441 l 732 -203 l 624 -203 l 624 -170 q 650 -98 624 -127 q 763 -68 676 -68 q 876 -98 850 -68 q 902 -170 902 -127 l 902 -293 l 1044 -151 l 1187 -293 l 1187 746 m 800 416 q 787 436 800 436 q 773 416 773 436 q 800 387 773 390 l 800 416 m 807 300 l 807 271 q 536 0 807 0 q 264 271 264 0 l 264 407 l 434 407 l 434 271 q 536 136 434 136 q 637 271 637 136 l 637 328 q 170 746 170 496 q 536 1017 170 1017 q 902 746 902 1017 q 686 557 902 557 q 590 585 627 557 l 590 729 q 696 705 673 705 q 732 746 732 705 q 536 882 732 882 q 339 746 339 882 q 637 459 339 532 q 760 515 637 515 q 902 431 902 515 q 874 329 902 354 q 807 300 847 304 z "},"អ":{"ha":1072,"x_min":68,"x_max":936,"o":"m 203 193 q 176 183 182 192 q 170 154 170 174 q 176 125 170 134 q 203 116 182 116 l 203 193 m 766 193 q 739 183 745 192 q 732 154 732 174 q 739 125 732 134 q 766 116 745 116 l 766 193 m 339 153 q 304 36 339 73 q 203 0 269 0 q 103 36 138 0 q 68 153 68 73 q 93 269 68 233 q 170 309 118 305 l 170 746 q 102 856 170 802 l 102 916 q 231 1017 102 1017 l 373 1017 l 373 882 l 258 882 l 258 873 q 339 746 339 819 l 339 576 l 732 576 l 732 746 q 665 856 732 802 l 665 916 q 793 1017 665 1017 l 936 1017 l 936 882 l 821 882 l 821 873 q 902 746 902 819 l 902 153 q 867 36 902 73 q 766 0 831 0 q 666 36 701 0 q 631 153 631 73 q 656 269 631 233 q 732 309 681 305 l 732 441 l 339 441 l 339 153 z "},"ឣ":{"ha":1072,"x_min":68,"x_max":936,"o":"m 203 193 q 176 183 182 192 q 170 154 170 174 q 176 125 170 134 q 203 116 182 116 l 203 193 m 766 193 q 739 183 745 192 q 732 154 732 174 q 739 125 732 134 q 766 116 745 116 l 766 193 m 339 153 q 304 36 339 73 q 203 0 269 0 q 103 36 138 0 q 68 153 68 73 q 93 269 68 233 q 170 309 118 305 l 170 746 q 102 856 170 802 l 102 916 q 231 1017 102 1017 l 373 1017 l 373 882 l 258 882 l 258 873 q 339 746 339 819 l 339 576 l 732 576 l 732 746 q 665 856 732 802 l 665 916 q 793 1017 665 1017 l 936 1017 l 936 882 l 821 882 l 821 873 q 902 746 902 819 l 902 153 q 867 36 902 73 q 766 0 831 0 q 666 36 701 0 q 631 153 631 73 q 656 269 631 233 q 732 309 681 305 l 732 441 l 339 441 l 339 153 z "},"ឤ":{"ha":1546,"x_min":68,"x_max":1377,"o":"m 203 193 q 176 183 182 192 q 170 154 170 174 q 176 125 170 134 q 203 116 182 116 l 203 193 m 766 193 q 739 183 745 192 q 732 154 732 174 q 739 125 732 134 q 766 116 745 116 l 766 193 m 821 882 l 821 873 q 902 746 902 819 l 902 153 q 867 36 902 73 q 766 0 831 0 q 666 36 701 0 q 631 153 631 73 q 656 269 631 233 q 732 309 681 305 l 731 441 l 338 441 l 339 153 q 304 36 339 73 q 203 0 269 0 q 103 36 138 0 q 68 153 68 73 q 93 269 68 233 q 170 309 118 305 l 170 746 q 102 856 170 802 l 102 916 q 231 1017 102 1017 l 373 1017 l 373 882 l 258 882 l 258 873 q 339 746 339 819 l 338 576 l 731 576 l 732 746 q 665 856 732 802 l 665 916 q 793 1017 665 1017 l 1078 1017 q 1377 746 1377 1017 l 1377 0 l 1207 0 l 1207 746 q 1078 882 1207 882 l 821 882 z "},"ឥ":{"ha":1072,"x_min":136,"x_max":902,"o":"m 305 116 q 333 125 326 116 q 339 154 339 134 q 333 183 339 174 q 305 193 326 192 l 305 116 m 170 475 q 536 814 170 814 q 902 475 902 814 l 902 0 l 732 0 l 732 475 q 536 678 732 678 q 339 475 339 678 l 339 309 q 416 269 391 305 q 441 153 441 233 q 406 43 441 86 q 305 0 370 0 q 205 40 240 0 q 170 153 170 79 l 170 475 m 183 726 q 136 854 170 800 l 136 882 q 298 1017 136 1017 l 517 1017 l 673 949 l 712 949 q 732 963 732 949 l 732 1119 l 902 1119 l 902 963 q 760 814 902 814 l 623 814 l 467 882 l 346 882 q 305 868 305 882 q 339 793 339 814 l 183 726 z "},"ឦ":{"ha":1478,"x_min":170,"x_max":1309,"o":"m 885 -237 q 1027 -305 885 -305 q 1139 -170 1139 -305 l 1139 1085 q 1010 1221 1139 1221 l 732 1221 l 732 1458 q 705 1492 732 1492 l 678 1492 l 678 1628 l 739 1628 q 902 1492 902 1628 l 902 1356 l 1010 1356 q 1309 1085 1309 1356 l 1309 -170 q 1027 -441 1309 -441 q 729 -271 729 -441 q 536 -203 729 -203 q 359 -292 359 -203 q 396 -318 366 -292 q 427 -366 427 -345 q 396 -414 427 -387 q 315 -441 366 -441 q 234 -414 265 -441 q 203 -349 203 -387 l 203 -271 q 536 -68 203 -68 q 885 -237 885 -68 m 305 116 q 333 125 326 116 q 339 154 339 134 q 333 183 339 174 q 305 193 326 192 l 305 116 m 170 678 q 536 1017 170 1017 q 902 678 902 1017 l 902 0 l 732 0 l 732 678 q 536 882 732 882 q 339 678 339 882 l 339 309 q 416 269 391 305 q 441 153 441 233 q 406 43 441 86 q 305 0 370 0 q 205 40 240 0 q 170 153 170 79 l 170 678 z "},"ឧ":{"ha":1072,"x_min":170,"x_max":902,"o":"m 170 444 q 732 746 732 538 q 536 882 732 882 q 339 746 339 882 q 376 664 339 664 q 481 688 399 664 l 481 585 q 385 557 444 557 q 170 746 170 557 q 536 1017 170 1017 q 902 746 902 1017 q 339 344 902 466 l 339 271 q 387 136 339 136 q 732 317 475 136 l 732 407 l 902 407 l 902 0 l 732 0 l 732 164 q 387 0 544 0 q 170 271 170 0 l 170 444 z "},"ឨ":{"ha":1072,"x_min":170,"x_max":902,"o":"m 536 1044 l 369 1103 l 205 1019 l 172 1167 l 363 1263 l 536 1181 l 708 1263 l 899 1167 l 867 1019 l 703 1103 l 536 1044 m 170 444 q 732 746 732 538 q 536 882 732 882 q 339 746 339 882 q 376 664 339 664 q 481 688 399 664 l 481 585 q 385 557 444 557 q 170 746 170 557 q 536 1017 170 1017 q 902 746 902 1017 q 339 344 902 466 l 339 271 q 387 136 339 136 q 732 317 475 136 l 732 407 l 902 407 l 902 0 l 732 0 l 732 164 q 387 0 544 0 q 170 271 170 0 l 170 444 z "},"ឩ":{"ha":1072,"x_min":170,"x_max":936,"o":"m 631 317 l 631 407 l 766 407 l 766 0 l 631 0 l 631 164 q 387 0 544 0 q 170 271 170 0 l 170 444 q 732 746 732 538 q 536 882 732 882 q 339 746 339 882 q 376 664 339 664 q 481 688 399 664 l 481 585 q 385 557 444 557 q 170 746 170 557 q 536 1017 170 1017 q 902 746 902 1017 q 339 344 902 466 l 339 271 q 387 136 339 136 q 631 317 475 136 m 800 407 l 936 407 l 936 0 l 800 0 l 800 407 z "},"ឪ":{"ha":1072,"x_min":136,"x_max":902,"o":"m 170 444 q 732 746 732 538 q 536 882 732 882 q 339 746 339 882 q 376 664 339 664 q 481 688 399 664 l 481 585 q 385 557 444 557 q 170 746 170 557 q 536 1017 170 1017 q 902 746 902 1017 q 339 344 902 466 l 339 271 q 387 136 339 136 q 732 317 475 136 l 732 407 l 902 407 l 902 0 l 732 0 l 732 164 q 387 0 544 0 q 170 271 170 0 l 170 444 m 183 929 q 136 1058 170 1004 l 136 1085 q 298 1221 136 1221 l 517 1221 l 673 1153 l 712 1153 q 732 1166 732 1153 l 732 1322 l 902 1322 l 902 1166 q 760 1017 902 1017 l 623 1017 l 467 1085 l 346 1085 q 305 1072 305 1085 q 339 997 339 1017 l 183 929 z "},"ឫ":{"ha":1072,"x_min":102,"x_max":936,"o":"m 902 -34 l 902 -127 q 517 -339 902 -339 q 144 -248 315 -339 l 186 -101 q 517 -203 358 -203 q 732 -127 732 -203 l 732 -34 l 902 -34 m 732 746 q 665 856 732 802 l 665 916 q 793 1017 665 1017 l 936 1017 l 936 882 l 821 882 l 821 873 q 902 746 902 819 l 902 339 q 536 0 902 0 q 170 339 170 0 l 170 746 q 102 856 170 802 l 102 916 q 231 1017 102 1017 l 373 1017 l 373 882 l 258 882 l 258 873 q 339 746 339 819 l 339 339 q 536 136 339 136 q 732 339 732 136 l 732 746 z "},"ឬ":{"ha":1072,"x_min":102,"x_max":936,"o":"m 828 -257 q 936 -271 869 -271 l 936 -407 q 764 -372 811 -407 q 709 -320 734 -350 q 517 -339 651 -339 q 144 -248 315 -339 l 186 -101 q 517 -203 358 -203 q 732 -127 732 -203 l 732 -34 l 902 -34 l 902 -127 q 828 -257 902 -195 m 732 746 q 665 856 732 802 l 665 916 q 793 1017 665 1017 l 936 1017 l 936 882 l 821 882 l 821 873 q 902 746 902 819 l 902 339 q 536 0 902 0 q 170 339 170 0 l 170 746 q 102 856 170 802 l 102 916 q 231 1017 102 1017 l 373 1017 l 373 882 l 258 882 l 258 873 q 339 746 339 819 l 339 339 q 536 136 339 136 q 732 339 732 136 l 732 746 z "},"ឭ":{"ha":1072,"x_min":144,"x_max":902,"o":"m 305 116 q 333 125 326 116 q 339 154 339 134 q 333 183 339 174 q 305 193 326 192 l 305 116 m 732 760 l 684 821 l 536 714 l 387 821 l 339 760 l 339 309 q 416 269 391 305 q 441 153 441 233 q 406 43 441 86 q 305 0 370 0 q 205 40 240 0 q 170 153 170 79 l 170 806 l 368 1036 l 536 896 l 703 1036 l 902 806 l 902 -127 q 517 -339 902 -339 q 144 -248 315 -339 l 186 -101 q 517 -203 358 -203 q 732 -127 732 -203 l 732 760 z "},"ឮ":{"ha":1072,"x_min":144,"x_max":936,"o":"m 305 116 q 333 125 326 116 q 339 154 339 134 q 333 183 339 174 q 305 193 326 192 l 305 116 m 732 760 l 684 821 l 536 714 l 387 821 l 339 760 l 339 309 q 416 269 391 305 q 441 153 441 233 q 406 43 441 86 q 305 0 370 0 q 205 40 240 0 q 170 153 170 79 l 170 806 l 368 1036 l 536 896 l 703 1036 l 902 806 l 902 -127 q 828 -257 902 -195 q 936 -271 869 -271 l 936 -407 q 764 -372 811 -407 q 709 -320 734 -350 q 517 -339 651 -339 q 144 -248 315 -339 l 186 -101 q 517 -203 358 -203 q 732 -127 732 -203 l 732 760 z "},"ឯ":{"ha":1072,"x_min":68,"x_max":902,"o":"m 203 494 q 176 485 182 494 q 170 456 170 476 q 176 427 170 436 q 203 417 182 418 l 203 494 m 732 746 q 536 882 732 882 q 339 746 339 882 l 170 746 l 170 1119 q 129 1153 170 1153 l 68 1153 l 68 1289 l 129 1289 q 339 1153 339 1289 l 339 991 q 536 1017 362 1017 q 902 746 902 1017 l 902 0 l 720 0 l 536 184 l 351 0 l 170 0 l 170 301 q 93 341 118 305 q 68 458 68 378 q 93 574 68 538 q 203 610 118 610 q 314 574 289 610 q 339 458 339 538 l 339 177 l 536 355 l 732 177 l 732 746 z "},"ឰ":{"ha":1072,"x_min":170,"x_max":902,"o":"m 652 -168 q 718 -210 697 -210 q 744 -201 728 -210 q 760 -168 760 -191 q 731 -151 758 -151 q 652 -168 704 -151 m 305 116 q 333 125 326 116 q 339 154 339 134 q 333 183 339 174 q 305 193 326 192 l 305 116 m 572 -192 q 448 -226 499 -216 q 495 -271 448 -271 q 572 -192 538 -271 m 902 0 q 868 -238 902 -170 q 749 -305 834 -305 q 646 -290 658 -305 q 475 -373 630 -373 q 305 -231 305 -373 q 376 -136 305 -146 q 567 -97 448 -126 q 732 -7 686 -68 l 732 760 l 684 821 l 536 714 l 387 821 l 339 760 l 339 309 q 416 269 391 305 q 441 153 441 233 q 406 43 441 86 q 305 0 370 0 q 205 40 240 0 q 170 153 170 79 l 170 806 l 368 1036 l 536 896 l 703 1036 l 902 806 l 902 0 z "},"ឱ":{"ha":1072,"x_min":170,"x_max":902,"o":"m 332 1116 q 345 1111 339 1111 q 359 1131 351 1111 q 434 1071 434 1105 q 331 1017 434 1017 q 170 1143 170 1017 q 237 1247 170 1206 q 427 1289 304 1289 q 894 1109 577 1289 l 823 1003 q 424 1153 522 1153 q 342 1137 358 1153 q 330 1120 330 1125 q 332 1116 330 1117 m 170 444 q 732 746 732 538 q 536 882 732 882 q 339 746 339 882 q 376 664 339 664 q 481 688 399 664 l 481 585 q 385 557 444 557 q 170 746 170 557 q 536 1017 170 1017 q 902 746 902 1017 q 339 344 902 466 l 339 271 q 387 136 339 136 q 732 317 475 136 l 732 407 l 902 407 l 902 0 l 732 0 l 732 164 q 387 0 544 0 q 170 271 170 0 l 170 444 z "},"ឲ":{"ha":1072,"x_min":170,"x_max":905,"o":"m 902 275 q 536 0 902 0 q 170 339 170 0 l 170 678 q 536 1017 170 1017 q 902 814 902 1017 l 732 814 q 536 882 732 882 q 339 678 339 882 l 339 339 q 536 136 339 136 q 732 275 732 136 l 736 275 q 675 376 736 376 l 587 376 l 587 512 l 675 512 q 736 563 736 512 q 675 614 736 614 l 593 614 l 593 749 l 675 749 q 905 580 905 749 q 827 441 905 491 q 905 275 905 383 l 902 275 z "},"ឳ":{"ha":1072,"x_min":170,"x_max":970,"o":"m 746 1187 l 746 1289 q 909 1424 746 1424 l 970 1424 l 970 1289 l 909 1289 q 902 1255 902 1289 l 902 1099 l 823 1003 q 424 1153 522 1153 q 342 1137 358 1153 q 330 1120 330 1125 q 332 1116 330 1117 q 345 1111 339 1111 q 359 1131 351 1111 q 434 1071 434 1105 q 331 1017 434 1017 q 170 1143 170 1017 q 237 1247 170 1206 q 427 1289 304 1289 q 746 1187 540 1289 m 170 444 q 732 746 732 538 q 536 882 732 882 q 339 746 339 882 q 376 664 339 664 q 481 688 399 664 l 481 585 q 385 557 444 557 q 170 746 170 557 q 536 1017 170 1017 q 902 746 902 1017 q 339 344 902 466 l 339 271 q 387 136 339 136 q 732 317 475 136 l 732 407 l 902 407 l 902 0 l 732 0 l 732 164 q 387 0 544 0 q 170 271 170 0 l 170 444 z "},"ា":{"ha":509,"x_min":-170,"x_max":339,"o":"m -170 1017 l -7 1017 q 339 746 339 1017 l 339 0 l 170 0 l 170 746 q -7 882 170 882 l -170 882 l -170 1017 z "},"ិ":{"ha":0,"x_min":-814,"x_max":-170,"o":"m -814 1356 q -543 1526 -814 1526 q -288 1434 -407 1526 q -170 1309 -170 1343 l -170 1221 l -644 1221 q -814 1356 -814 1221 m -678 1353 q -610 1316 -678 1316 l -305 1316 q -543 1390 -440 1390 q -678 1353 -678 1390 z "},"ី":{"ha":0,"x_min":-814,"x_max":-170,"o":"m -678 1353 q -610 1316 -678 1316 l -305 1316 q -543 1390 -440 1390 q -678 1353 -678 1390 m -292 1437 l -292 1594 l -170 1594 l -170 1221 l -644 1221 q -814 1356 -814 1221 q -543 1526 -814 1526 q -292 1437 -409 1526 z "},"ឹ":{"ha":0,"x_min":-814,"x_max":-170,"o":"m -278 1499 q -288 1495 -283 1499 q -292 1485 -292 1492 q -288 1476 -292 1480 q -278 1472 -283 1472 q -268 1476 -271 1472 q -264 1485 -264 1480 q -268 1495 -264 1492 q -278 1499 -271 1499 m -678 1353 q -610 1316 -678 1316 l -305 1316 q -543 1390 -440 1390 q -678 1353 -678 1390 m -387 1493 q -357 1564 -384 1537 q -278 1594 -328 1594 q -199 1564 -229 1594 q -170 1485 -170 1535 q -199 1407 -170 1436 q -229 1385 -212 1393 q -170 1309 -170 1333 l -170 1221 l -644 1221 q -814 1356 -814 1221 q -543 1526 -814 1526 q -387 1493 -461 1526 z "},"ឺ":{"ha":0,"x_min":-814,"x_max":-170,"o":"m -678 1353 q -610 1316 -678 1316 l -305 1316 q -543 1390 -440 1390 q -678 1353 -678 1390 m -434 1510 l -434 1594 l -326 1594 l -326 1461 q -288 1434 -307 1449 q -278 1426 -283 1430 l -278 1594 l -170 1594 l -170 1221 l -644 1221 q -814 1356 -814 1221 q -543 1526 -814 1526 q -434 1510 -487 1526 z "},"ុ":{"ha":0,"x_min":-339,"x_max":-170,"o":"m -170 -68 l -170 -441 l -339 -441 l -339 -68 l -170 -68 z "},"ូ":{"ha":0,"x_min":-543,"x_max":-170,"o":"m -407 -271 q -373 -319 -407 -319 q -339 -271 -339 -319 l -339 -68 l -170 -68 l -170 -271 q -356 -441 -170 -441 q -543 -271 -543 -441 l -543 -68 l -407 -68 l -407 -271 z "},"ួ":{"ha":0,"x_min":-631,"x_max":-170,"o":"m -339 -305 l -339 -68 l -170 -68 l -170 -441 l -339 -441 l -417 -373 l -495 -441 l -631 -441 l -631 -68 l -495 -68 l -495 -305 l -417 -237 l -339 -305 z "},"ើ":{"ha":0,"x_min":-814,"x_max":-170,"o":"m -678 1353 q -610 1316 -678 1316 l -305 1316 q -543 1390 -440 1390 q -678 1353 -678 1390 m -292 1437 l -292 1594 l -170 1594 l -170 1221 l -644 1221 q -814 1356 -814 1221 q -543 1526 -814 1526 q -292 1437 -409 1526 z "},"ឿ":{"ha":509,"x_min":-427,"x_max":339,"o":"m -292 1421 q -224 1383 -292 1383 l 47 1383 q -190 1458 -87 1458 q -292 1421 -292 1458 m 339 1085 l 339 -170 q 0 -441 339 -441 q -339 -170 -339 -441 l -339 -68 l -170 -68 l -170 -170 q 0 -305 -170 -305 q 170 -170 170 -305 l 170 1085 q 47 1289 170 1241 l -258 1289 q -427 1424 -427 1289 q -190 1594 -427 1594 q -81 1578 -134 1594 l -81 1662 l 27 1662 l 27 1529 q 64 1502 46 1516 q 75 1494 70 1498 l 75 1662 l 183 1662 l 183 1385 q 339 1085 339 1263 z "},"ៀ":{"ha":509,"x_min":-339,"x_max":339,"o":"m 339 -170 q 0 -441 339 -441 q -339 -170 -339 -441 l -339 -68 l -170 -68 l -170 -170 q 0 -305 -170 -305 q 170 -170 170 -305 l 170 1085 q 41 1221 170 1221 l -271 1221 l -271 1458 q -278 1492 -271 1492 l -339 1492 l -339 1628 l -278 1628 q -115 1492 -115 1628 l -115 1356 l 41 1356 q 339 1085 339 1356 l 339 -170 z "},"េ":{"ha":509,"x_min":102,"x_max":441,"o":"m 333 183 q 329 188 333 183 q 305 193 326 192 l 305 116 q 333 125 326 116 q 339 154 339 134 q 333 183 339 174 m 339 309 q 416 269 391 305 q 441 153 441 233 q 406 36 441 73 q 305 0 370 0 q 205 36 240 0 q 170 153 170 73 l 170 746 q 102 856 170 802 l 102 916 q 231 1017 102 1017 l 373 1017 l 373 882 l 258 882 l 258 873 q 339 746 339 819 l 339 309 z "},"ែ":{"ha":509,"x_min":51,"x_max":441,"o":"m 333 183 q 329 188 333 183 q 305 193 326 192 l 305 116 q 333 125 326 116 q 339 154 339 134 q 333 183 339 174 m 339 309 q 416 269 391 305 q 441 153 441 233 q 406 36 441 73 q 305 0 370 0 q 205 36 240 0 q 170 153 170 73 l 170 746 q 102 856 170 802 l 102 916 q 231 1017 102 1017 l 373 1017 l 373 882 l 258 882 l 258 873 q 339 746 339 819 l 339 309 m 231 1200 q 275 1255 275 1200 q 176 1377 275 1377 q 85 1350 115 1377 l 51 1451 q 176 1492 95 1492 q 390 1255 390 1492 q 210 1085 390 1085 q 51 1219 51 1085 q 76 1299 51 1276 q 186 1322 102 1322 l 186 1234 q 166 1217 166 1234 q 231 1200 166 1200 z "},"ៃ":{"ha":509,"x_min":51,"x_max":441,"o":"m 333 183 q 329 188 333 183 q 305 193 326 192 l 305 116 q 333 125 326 116 q 339 154 339 134 q 333 183 339 174 m 339 309 q 416 269 391 305 q 441 153 441 233 q 406 36 441 73 q 305 0 370 0 q 205 36 240 0 q 170 153 170 73 l 170 746 q 102 856 170 802 l 102 916 q 231 1017 102 1017 l 373 1017 l 373 882 l 258 882 l 258 873 q 339 746 339 819 l 339 309 m 180 1377 q 213 1378 197 1378 q 390 1241 390 1378 q 241 1085 390 1085 q 92 1185 92 1085 q 117 1258 92 1235 q 213 1282 142 1282 l 213 1200 q 200 1187 200 1200 q 237 1173 200 1173 q 275 1241 275 1173 q 71 1302 275 1302 q 92 1417 88 1370 q 64 1458 92 1458 l 51 1458 l 51 1526 l 85 1526 q 199 1451 199 1526 q 180 1377 199 1432 z "},"ោ":{"ha":509,"x_min":-170,"x_max":339,"o":"m -170 1017 l -7 1017 q 339 746 339 1017 l 339 0 l 170 0 l 170 746 q -7 882 170 882 l -170 882 l -170 1017 z "},"ៅ":{"ha":509,"x_min":-170,"x_max":339,"o":"m 81 1289 l 176 1289 q 339 1153 339 1289 l 339 678 l 170 678 l 170 1092 q 142 1153 170 1153 l 81 1153 l 81 1289 m -170 1017 l -7 1017 q 339 746 339 1017 l 339 0 l 170 0 l 170 746 q -7 882 170 882 l -170 882 l -170 1017 z "},"ំ":{"ha":0,"x_min":-699,"x_max":-393,"o":"m -580 1373 q -571 1348 -580 1356 q -546 1339 -563 1339 q -520 1348 -529 1339 q -512 1373 -512 1356 q -520 1398 -512 1390 q -546 1407 -529 1407 q -571 1398 -563 1407 q -580 1373 -580 1390 m -393 1373 q -431 1259 -393 1297 q -546 1221 -469 1221 q -661 1259 -623 1221 q -699 1373 -699 1297 q -661 1488 -699 1450 q -546 1526 -623 1526 q -431 1488 -469 1526 q -393 1373 -393 1450 z "},"ះ":{"ha":644,"x_min":170,"x_max":475,"o":"m 288 831 q 297 806 288 814 q 322 797 305 797 q 347 806 339 797 q 356 831 356 814 q 347 856 356 848 q 322 865 339 865 q 297 856 305 865 q 288 831 288 848 m 475 831 q 437 716 475 754 q 322 678 399 678 q 208 716 245 678 q 170 831 170 754 q 208 945 170 907 q 322 983 245 983 q 437 945 399 983 q 475 831 475 907 m 288 186 q 297 161 288 170 q 322 153 305 153 q 347 161 339 153 q 356 186 356 170 q 347 212 356 203 q 322 220 339 220 q 297 212 305 220 q 288 186 288 203 m 475 186 q 437 72 475 110 q 322 34 399 34 q 208 72 245 34 q 170 186 170 110 q 208 301 170 263 q 322 339 245 339 q 437 301 399 339 q 475 186 475 263 z "},"ៈ":{"ha":576,"x_min":170,"x_max":407,"o":"m 170 831 q 199 920 170 892 q 288 949 231 949 q 378 920 349 949 q 407 831 407 892 q 378 742 407 773 q 288 712 349 712 q 199 742 231 712 q 170 831 170 773 m 170 186 q 199 276 170 248 q 288 305 231 305 q 378 276 349 305 q 407 186 407 248 q 378 98 407 129 q 288 68 349 68 q 199 98 231 68 q 170 186 170 129 z "},"៉":{"ha":0,"x_min":-712,"x_max":-373,"o":"m -576 1526 l -576 1221 l -712 1221 l -712 1526 l -576 1526 m -373 1526 l -373 1221 l -509 1221 l -509 1526 l -373 1526 z "},"៊":{"ha":0,"x_min":-929,"x_max":-170,"o":"m -549 1051 l -739 1112 l -888 1058 l -929 1173 l -739 1255 l -549 1194 l -359 1255 l -170 1173 l -210 1058 l -359 1112 l -549 1051 z "},"់":{"ha":0,"x_min":-593,"x_max":-458,"o":"m -458 1526 l -458 1221 l -593 1221 l -593 1526 l -458 1526 z "},"៌":{"ha":0,"x_min":-712,"x_max":-190,"o":"m -319 1317 q -509 1390 -387 1390 q -590 1350 -590 1390 q -567 1316 -590 1316 q -519 1325 -544 1316 q -428 1335 -494 1335 q -271 1227 -348 1335 l -346 1187 q -429 1239 -380 1239 q -525 1223 -481 1239 q -606 1207 -568 1207 q -712 1319 -712 1207 q -508 1492 -712 1492 q -292 1390 -355 1492 l -292 1404 q -319 1472 -292 1428 l -224 1492 q -190 1383 -190 1451 q -200 1319 -190 1350 q -256 1289 -210 1289 q -319 1317 -294 1289 z "},"៍":{"ha":0,"x_min":-526,"x_max":-136,"o":"m -383 1512 q -309 1489 -346 1512 q -215 1592 -255 1506 l -136 1553 q -278 1397 -183 1438 q -376 1417 -323 1417 q -417 1363 -417 1417 q -383 1322 -417 1322 q -336 1326 -336 1322 q -355 1329 -336 1329 l -355 1397 q -266 1370 -292 1397 q -241 1310 -241 1343 q -383 1221 -241 1221 q -526 1356 -526 1221 q -383 1512 -526 1512 z "},"៎":{"ha":0,"x_min":-678,"x_max":-339,"o":"m -576 1291 l -678 1291 l -678 1421 l -576 1421 l -576 1525 l -441 1525 l -441 1421 l -339 1421 l -339 1291 l -441 1291 l -441 1187 l -576 1187 l -576 1291 z "},"៏":{"ha":0,"x_min":-695,"x_max":-254,"o":"m -519 1512 q -434 1485 -452 1512 q -323 1592 -391 1574 l -258 1539 q -378 1397 -326 1519 q -512 1417 -458 1417 q -587 1356 -587 1417 q -564 1329 -587 1329 q -471 1377 -549 1329 q -363 1329 -404 1329 q -342 1333 -342 1329 q -355 1336 -342 1336 l -355 1390 q -314 1400 -332 1400 q -279 1388 -294 1400 q -254 1316 -254 1364 q -359 1221 -254 1221 q -471 1289 -431 1221 q -574 1221 -522 1221 q -695 1356 -695 1221 q -519 1512 -695 1512 z "},"័":{"ha":0,"x_min":-543,"x_max":-68,"o":"m -407 1380 q -322 1356 -407 1356 q -203 1492 -203 1356 l -203 1580 l -68 1580 l -68 1492 q -322 1221 -68 1221 q -543 1367 -543 1221 q -422 1492 -543 1492 q -339 1472 -372 1492 l -359 1391 q -390 1405 -374 1405 q -407 1380 -407 1405 z "},"៑":{"ha":0,"x_min":-848,"x_max":-170,"o":"m -170 1255 l -170 1119 l -848 1119 l -848 1255 l -170 1255 z "},"្":{"ha":0,"x_min":-678,"x_max":-339,"o":"m -576 -336 l -678 -336 l -678 -207 l -576 -207 l -576 -102 l -441 -102 l -441 -207 l -339 -207 l -339 -336 l -441 -336 l -441 -441 l -576 -441 l -576 -336 z "},"៓":{"ha":0,"x_min":-695,"x_max":-356,"o":"m -576 1187 q -564 1162 -576 1170 q -526 1153 -551 1153 q -487 1162 -500 1153 q -474 1187 -474 1170 q -487 1212 -474 1204 q -526 1221 -500 1221 q -564 1212 -551 1221 q -576 1187 -576 1204 m -356 1187 q -399 1085 -356 1119 q -526 1051 -441 1051 q -652 1085 -610 1051 q -695 1187 -695 1119 q -652 1289 -695 1255 q -526 1322 -610 1322 q -399 1289 -441 1322 q -356 1187 -356 1255 z "},"។":{"ha":949,"x_min":170,"x_max":780,"o":"m 610 913 l 610 1017 l 780 1017 l 780 0 l 610 0 l 610 755 q 373 678 490 678 q 170 848 170 678 q 319 1017 170 1017 q 427 960 373 1017 l 393 846 q 334 882 349 882 q 319 848 319 882 q 373 814 319 814 q 610 913 493 814 z "},"៕":{"ha":1166,"x_min":170,"x_max":997,"o":"m 834 1017 l 997 1017 l 997 0 l 834 0 l 834 1017 m 610 913 l 610 1017 l 780 1017 l 780 0 l 610 0 l 610 755 q 373 678 490 678 q 170 848 170 678 q 319 1017 170 1017 q 427 960 373 1017 l 393 846 q 334 882 349 882 q 319 848 319 882 q 373 814 319 814 q 610 913 493 814 z "},"៖":{"ha":644,"x_min":102,"x_max":543,"o":"m 543 559 l 543 423 l 102 423 l 102 559 l 543 559 m 288 831 q 297 806 288 814 q 322 797 305 797 q 347 806 339 797 q 356 831 356 814 q 347 856 356 848 q 322 865 339 865 q 297 856 305 865 q 288 831 288 848 m 475 831 q 437 716 475 754 q 322 678 399 678 q 208 716 245 678 q 170 831 170 754 q 208 945 170 907 q 322 983 245 983 q 437 945 399 983 q 475 831 475 907 m 288 186 q 297 161 288 170 q 322 153 305 153 q 347 161 339 153 q 356 186 356 170 q 347 212 356 203 q 322 220 339 220 q 297 212 305 220 q 288 186 288 203 m 475 186 q 437 72 475 110 q 322 34 399 34 q 208 72 245 34 q 170 186 170 110 q 208 301 170 263 q 322 339 245 339 q 437 301 399 339 q 475 186 475 263 z "},"ៗ":{"ha":1072,"x_min":170,"x_max":902,"o":"m 604 0 q 255 123 401 0 l 303 260 q 604 136 474 136 q 732 271 732 136 l 732 747 l 671 821 l 536 728 l 402 821 l 339 740 q 379 698 339 698 q 481 722 419 698 l 481 585 q 358 557 444 557 q 170 746 170 557 l 170 800 l 366 1034 l 536 907 l 705 1034 l 902 800 l 902 271 q 604 0 902 0 z "},"៘":{"ha":3445,"x_min":170,"x_max":3276,"o":"m 610 913 l 610 1017 l 780 1017 l 780 0 l 610 0 l 610 755 q 373 678 490 678 q 170 848 170 678 q 319 1017 170 1017 q 427 960 373 1017 l 393 846 q 334 882 349 882 q 319 848 319 882 q 373 814 319 814 q 610 913 493 814 m 1255 116 q 1282 125 1276 116 q 1289 154 1289 134 q 1282 183 1289 174 q 1255 193 1276 192 l 1255 116 m 1119 678 q 1463 1017 1119 1017 q 1807 678 1807 1017 l 1807 339 q 1994 136 1807 136 q 2157 339 2157 136 l 2157 746 q 2089 856 2157 802 l 2089 916 q 2218 1017 2089 1017 l 2360 1017 l 2360 882 l 2245 882 l 2245 873 q 2326 746 2326 819 l 2326 339 q 1994 0 2326 0 q 1638 339 1638 0 l 1638 678 q 1463 882 1638 882 q 1289 678 1289 882 l 1289 309 q 1365 269 1340 305 q 1390 153 1390 233 q 1355 43 1390 86 q 1255 0 1320 0 q 1154 40 1190 0 q 1119 153 1119 79 l 1119 678 m 3106 913 l 3106 1017 l 3276 1017 l 3276 0 l 3106 0 l 3106 755 q 2869 678 2986 678 q 2665 848 2665 678 q 2814 1017 2665 1017 q 2923 960 2869 1017 l 2889 846 q 2830 882 2845 882 q 2814 848 2814 882 q 2869 814 2814 814 q 3106 913 2989 814 z "},"៙":{"ha":1424,"x_min":170,"x_max":1119,"o":"m 644 0 q 288 119 408 0 q 170 475 170 237 q 288 831 170 712 q 644 949 408 949 q 1000 831 881 949 q 1119 475 1119 712 q 1000 119 1119 237 q 644 0 881 0 m 644 797 q 322 475 322 797 q 644 153 322 153 q 966 475 966 153 q 644 797 966 797 m 644 203 q 441 271 508 203 q 373 475 373 339 q 441 678 373 610 q 644 746 508 746 q 848 678 781 746 q 916 475 916 610 q 848 271 916 339 q 644 203 781 203 m 644 576 q 568 551 593 576 q 543 475 543 526 q 568 399 543 424 q 644 373 593 373 q 720 399 695 373 q 746 475 746 424 q 720 551 746 526 q 644 576 695 576 z "},"៚":{"ha":2665,"x_min":305,"x_max":2496,"o":"m 2136 324 q 2160 347 2158 347 l 2159 349 q 2142 355 2155 355 q 2128 351 2133 355 q 2124 345 2124 347 q 2136 324 2125 345 m 1241 705 q 1257 753 1257 730 q 1259 756 1257 756 q 1261 755 1259 756 q 1248 766 1249 766 q 1236 753 1246 766 q 1234 744 1234 750 q 1241 705 1234 723 m 1431 259 q 1429 243 1429 256 q 1428 243 1428 243 q 1432 237 1432 238 l 1438 241 l 1434 239 q 1431 259 1434 254 m 1667 730 q 1669 735 1669 730 q 1666 739 1668 739 q 1662 735 1662 739 q 1664 731 1662 732 q 1667 730 1665 730 m 1811 280 q 1829 298 1828 298 q 1826 304 1829 301 q 1813 308 1823 308 q 1807 307 1809 308 q 1799 297 1799 302 q 1811 280 1800 297 m 2039 685 q 2051 669 2039 669 q 2068 674 2066 672 q 2070 680 2070 677 l 2070 682 q 2057 703 2070 686 l 2039 685 m 2179 526 q 2217 536 2183 528 q 2404 559 2300 559 q 2496 492 2496 559 q 2401 424 2496 424 l 2320 424 q 2247 412 2271 424 q 2264 369 2257 393 q 2268 331 2268 348 q 2230 254 2268 283 q 2136 218 2182 218 q 2121 219 2129 218 q 2026 277 2068 226 q 1997 351 1997 314 q 1999 372 1997 361 q 2056 454 2011 418 q 2041 477 2051 462 q 2034 486 2035 486 l 2034 485 l 2038 479 q 1994 444 2033 475 q 1913 376 1942 400 q 1931 334 1923 357 q 1943 275 1943 301 q 1908 204 1943 231 q 1813 169 1860 169 q 1796 170 1805 169 q 1699 231 1741 178 q 1681 285 1681 256 q 1706 363 1681 319 q 1731 398 1718 382 q 1677 468 1711 425 l 1653 497 q 1601 444 1645 487 q 1521 364 1551 395 q 1563 288 1547 326 q 1579 219 1579 249 q 1541 144 1579 173 q 1428 100 1485 100 q 1415 101 1420 100 q 1305 165 1354 106 q 1280 231 1280 194 q 1303 315 1280 268 q 1339 375 1318 346 q 1278 441 1316 401 q 1254 466 1255 466 l 1255 465 q 1167 355 1231 432 q 879 79 1015 172 q 614 -17 738 -17 q 377 122 454 -17 q 305 509 305 252 q 388 895 305 766 q 654 1034 476 1034 q 918 960 829 1034 q 1004 749 1004 888 q 943 522 1004 608 q 751 398 879 431 q 716 393 733 393 q 644 444 659 393 q 642 464 642 455 q 706 527 642 509 q 812 600 774 545 q 848 744 848 651 q 800 862 848 824 q 654 899 752 899 q 515 810 564 899 q 462 513 462 711 l 462 509 q 505 210 462 307 q 614 119 545 119 q 798 194 692 119 q 1031 423 901 269 q 1159 585 1112 521 q 1107 678 1126 633 q 1090 759 1090 722 q 1122 844 1090 807 q 1246 911 1180 911 l 1247 911 q 1369 846 1312 911 q 1398 766 1398 813 q 1371 659 1398 721 q 1334 587 1355 623 q 1392 522 1357 559 q 1428 484 1425 488 q 1480 536 1438 494 q 1567 621 1535 588 q 1534 699 1548 656 q 1522 762 1522 735 q 1562 844 1522 813 q 1668 884 1617 884 q 1684 884 1676 884 q 1788 819 1742 876 q 1808 758 1808 793 q 1782 669 1808 720 q 1747 611 1767 640 q 1797 548 1766 587 q 1831 505 1827 510 q 1876 544 1836 510 q 1953 607 1927 584 q 1932 659 1940 631 q 1926 701 1926 682 q 1964 775 1926 746 q 2058 810 2011 810 q 2075 809 2066 810 q 2171 748 2128 802 q 2190 694 2190 724 q 2165 619 2190 661 q 2137 579 2152 597 q 2163 545 2146 568 q 2179 526 2178 526 z "},"៛":{"ha":509,"x_min":68,"x_max":373,"o":"m 203 193 q 176 183 182 192 q 170 154 170 174 q 176 125 170 134 q 203 116 182 116 l 203 193 m 170 746 q 102 856 170 802 l 102 916 q 231 1017 102 1017 l 373 1017 l 373 882 l 258 882 l 258 873 q 339 746 339 819 l 339 153 q 304 36 339 73 q 203 0 269 0 q 103 36 138 0 q 68 153 68 73 q 93 269 68 233 q 170 309 118 305 l 170 746 z "},"០":{"ha":1072,"x_min":170,"x_max":902,"o":"m 339 339 q 536 136 339 136 q 732 339 732 136 l 732 678 q 536 882 732 882 q 339 678 339 882 l 339 339 m 902 339 q 536 0 902 0 q 170 339 170 0 l 170 678 q 536 1017 170 1017 q 902 678 902 1017 l 902 339 z "},"១":{"ha":1072,"x_min":170,"x_max":902,"o":"m 502 136 q 732 543 732 136 q 536 882 732 882 q 339 678 339 882 q 354 619 339 644 q 395 594 368 594 q 432 600 424 594 q 440 612 440 606 q 437 613 440 613 q 399 600 430 613 l 363 681 q 471 721 417 721 q 559 692 532 721 q 586 611 586 664 q 569 545 586 583 q 503 488 552 507 q 401 468 454 468 q 289 486 341 468 q 203 551 236 504 q 170 678 170 597 q 536 1017 170 1017 q 902 543 902 1017 q 502 0 902 0 q 220 107 347 0 l 290 233 q 502 136 385 136 z "},"២":{"ha":1173,"x_min":68,"x_max":1004,"o":"m 543 570 q 564 577 559 570 q 570 593 570 584 q 565 607 570 602 q 543 614 559 614 l 543 570 m 407 833 l 574 1040 l 705 903 l 836 1040 l 1004 833 l 1004 339 q 587 0 1004 0 q 170 339 170 0 l 170 949 q 129 1017 170 1017 l 68 1017 l 68 1153 l 176 1153 q 339 1017 339 1153 l 339 339 q 587 136 339 136 q 834 339 834 136 l 834 787 l 811 815 l 705 705 l 600 815 l 576 787 l 576 710 q 661 669 631 708 q 685 593 685 639 q 656 511 685 548 q 543 475 627 475 q 436 511 465 475 q 407 593 407 548 l 407 833 z "},"៣":{"ha":1343,"x_min":169,"x_max":1173,"o":"m 305 95 q 327 102 321 95 q 332 118 332 109 q 328 132 332 127 q 305 140 322 140 l 305 95 m 170 751 q 452 1017 170 1017 q 671 945 641 1017 q 892 1017 702 1017 q 1173 746 1173 1017 l 1173 0 l 1004 0 l 1004 746 q 880 882 1004 882 q 756 746 756 882 l 756 0 l 587 0 l 587 746 q 463 882 587 882 q 339 751 339 882 l 338 751 l 339 235 q 423 194 393 233 q 448 119 448 164 q 418 37 448 73 q 305 0 389 0 q 199 37 228 0 q 170 119 170 73 l 169 751 l 170 751 z "},"៤":{"ha":1105,"x_min":170,"x_max":936,"o":"m 468 136 l 748 136 q 631 339 631 226 l 631 509 q 770 610 631 610 q 872 590 833 610 q 923 540 911 569 q 936 478 936 511 q 910 410 936 448 q 800 373 884 373 l 800 339 q 936 127 800 195 l 936 0 l 468 0 q 170 271 170 0 l 170 543 q 473 852 170 799 l 633 878 q 766 1017 766 912 q 715 1100 766 1090 l 808 1157 q 936 1017 936 1120 q 650 749 936 790 l 490 724 q 339 543 339 694 l 339 271 q 468 136 339 136 m 800 462 q 828 471 821 462 q 834 488 834 480 q 831 504 834 496 q 818 515 828 511 q 800 521 811 519 l 800 462 z "},"៥":{"ha":1105,"x_min":170,"x_max":936,"o":"m 800 462 q 828 471 821 462 q 834 488 834 480 q 831 504 834 496 q 818 515 828 511 q 800 521 811 519 l 800 462 m 170 610 q 301 802 170 706 q 237 902 237 851 q 393 1017 237 1017 q 543 922 543 1017 q 497 835 543 872 q 606 814 533 814 q 718 834 690 814 q 746 889 746 854 q 719 984 746 921 q 692 1092 692 1046 q 936 1221 692 1221 l 936 1119 q 848 1082 848 1119 q 875 980 848 1039 q 902 858 902 920 q 838 755 902 798 q 610 712 773 712 q 418 751 458 712 q 339 610 339 692 l 339 271 q 468 136 339 136 l 748 136 q 631 339 631 226 l 631 509 q 770 610 631 610 q 872 590 833 610 q 923 540 911 569 q 936 478 936 511 q 910 410 936 448 q 800 373 884 373 l 800 339 q 936 127 800 195 l 936 0 l 468 0 q 170 271 170 0 l 170 610 m 410 888 q 418 905 418 895 q 391 922 418 922 q 362 901 362 922 q 374 882 362 892 l 395 867 l 410 888 z "},"៦":{"ha":1072,"x_min":68,"x_max":902,"o":"m 732 678 q 536 882 732 882 q 339 678 339 882 l 170 678 l 170 983 q 129 1017 170 1017 l 68 1017 l 68 1153 l 129 1153 q 339 1017 339 1153 l 339 973 q 536 1017 375 1017 q 902 678 902 1017 l 902 339 q 536 0 902 0 q 170 339 170 0 q 203 467 170 420 q 289 531 236 513 q 401 549 341 549 q 503 530 454 549 q 569 472 552 510 q 586 406 586 435 q 559 308 586 353 q 471 262 532 262 q 363 302 417 262 l 399 397 q 435 384 427 384 q 439 386 438 384 l 439 387 q 428 406 439 393 q 395 410 424 410 q 354 381 368 410 q 339 298 339 353 q 536 136 339 136 q 732 339 732 136 l 732 678 z "},"៧":{"ha":1207,"x_min":170,"x_max":1072,"o":"m 305 116 q 333 125 326 116 q 339 154 339 134 q 333 183 339 174 q 305 193 326 192 l 305 116 m 170 833 l 333 1036 l 468 929 l 601 1034 l 790 833 l 790 203 q 846 136 790 136 q 902 203 902 136 l 902 983 q 861 1017 902 1017 l 800 1017 l 800 1153 l 909 1153 q 1072 1017 1072 1153 l 1072 203 q 846 0 1072 0 q 621 203 621 0 l 621 787 l 583 833 l 467 746 l 368 829 l 339 787 l 339 309 q 416 269 391 305 q 441 153 441 233 q 406 43 441 86 q 305 0 370 0 q 205 40 240 0 q 170 153 170 79 l 170 833 z "},"៨":{"ha":1072,"x_min":170,"x_max":1004,"o":"m 766 515 q 745 508 750 515 q 739 492 739 501 q 744 478 739 484 q 766 471 749 471 l 766 515 m 902 203 q 739 0 902 0 q 536 121 596 0 q 332 0 475 0 q 170 203 170 0 l 170 678 q 536 1017 170 1017 q 732 973 696 1017 l 732 1017 q 943 1153 732 1153 l 1004 1153 l 1004 1017 l 943 1017 q 902 983 902 1017 l 902 746 l 732 746 q 536 882 732 882 q 339 678 339 882 l 339 203 q 366 149 339 149 q 498 292 397 149 l 573 292 q 705 149 675 149 q 732 203 732 149 l 732 375 q 648 416 678 377 q 624 492 624 446 q 653 574 624 537 q 766 610 682 610 q 873 574 844 610 q 902 492 902 537 l 902 203 z "},"៩":{"ha":1072,"x_min":170,"x_max":902,"o":"m 776 256 q 767 271 768 271 q 700 252 718 271 q 682 212 682 233 q 686 207 682 207 q 776 256 701 207 m 665 147 l 654 147 q 560 176 587 147 q 533 237 533 204 q 557 302 533 270 q 627 351 582 335 q 725 366 673 366 q 902 203 902 366 q 536 0 902 0 q 170 339 170 0 l 170 404 q 265 629 170 559 q 358 673 311 662 q 317 840 317 777 q 570 1017 317 1017 q 732 936 661 1017 l 732 987 q 692 1031 732 1031 l 631 1031 l 631 1153 l 739 1153 q 902 1017 902 1153 l 902 678 l 732 678 q 570 882 732 882 q 489 820 489 882 q 522 681 489 760 l 545 677 q 894 461 707 646 l 806 374 q 523 546 642 525 q 452 553 484 553 q 369 517 399 553 q 339 404 339 481 l 339 339 q 536 136 339 136 q 665 147 618 136 z "}}}
